<?xml version="1.0" standalone="no"?>
<!DOCTYPE svg PUBLIC "-//W3C//DTD SVG 20010904//EN"
 "http://www.w3.org/TR/2001/REC-SVG-20010904/DTD/svg10.dtd">
<svg version="1.0" xmlns="http://www.w3.org/2000/svg"
 width="2000.000000pt" height="2000.000000pt" viewBox="0 0 2000.000000 2000.000000"
 preserveAspectRatio="xMidYMid meet">

<g transform="translate(0.000000,2000.000000) scale(0.100000,-0.100000)"
fill="#000000" stroke="none">
<path d="M4610 19962 c-14 -20 -30 -41 -37 -47 -7 -5 -29 -41 -49 -80 -20 -38
-45 -79 -55 -91 -11 -11 -19 -30 -19 -42 0 -11 -4 -24 -10 -27 -5 -3 -10 -15
-10 -27 0 -11 -7 -36 -16 -56 -9 -21 -22 -52 -30 -70 -20 -47 -18 -72 6 -72
27 0 50 39 59 102 8 56 22 89 70 160 29 43 113 195 130 235 6 11 15 24 20 28
19 11 12 25 -11 25 -15 0 -32 -13 -48 -38z"/>
<path d="M5810 19962 c-25 -21 -58 -49 -74 -63 -15 -14 -45 -37 -67 -50 -70
-42 -227 -160 -288 -218 -20 -18 -56 -43 -81 -56 -25 -13 -55 -37 -68 -55 -13
-17 -35 -36 -50 -42 -15 -6 -50 -34 -78 -62 -60 -60 -189 -170 -230 -196 -16
-10 -49 -41 -74 -69 -25 -29 -78 -80 -118 -114 -41 -34 -79 -72 -86 -85 -23
-44 -154 -181 -340 -357 -49 -45 -61 -53 -68 -40 -13 23 -44 2 -51 -35 -4 -17
-26 -50 -49 -74 -56 -58 -98 -111 -98 -124 0 -6 -20 -29 -43 -52 -24 -22 -50
-53 -58 -68 -7 -15 -28 -44 -46 -65 -18 -20 -33 -42 -33 -48 0 -14 -43 -68
-192 -239 -107 -123 -146 -174 -161 -208 -7 -15 -21 -38 -32 -51 -11 -13 -32
-38 -46 -55 -14 -17 -34 -47 -44 -66 -10 -19 -35 -55 -55 -80 -20 -25 -40 -52
-44 -60 -4 -8 -21 -38 -39 -67 -18 -29 -58 -99 -91 -155 -32 -57 -66 -114 -76
-128 -9 -14 -34 -56 -55 -95 -20 -38 -61 -107 -91 -153 -30 -45 -54 -86 -54
-90 0 -5 -20 -46 -44 -93 -24 -46 -51 -111 -60 -144 -8 -33 -26 -87 -40 -121
-14 -35 -22 -70 -19 -83 4 -15 -1 -29 -17 -43 -13 -13 -20 -28 -17 -40 3 -12
-3 -28 -15 -40 -11 -11 -29 -39 -40 -62 -11 -22 -33 -66 -49 -96 -28 -54 -35
-81 -23 -93 13 -12 42 13 88 77 27 35 58 67 70 70 14 3 33 25 51 58 25 48 143
178 160 178 4 0 23 14 43 31 27 24 37 28 43 17 13 -20 11 -44 -6 -58 -8 -7
-15 -27 -15 -44 -1 -17 -9 -49 -19 -70 -25 -53 -19 -65 31 -59 28 4 43 2 49
-8 15 -24 10 -73 -11 -114 -11 -22 -20 -47 -20 -56 0 -9 -7 -22 -14 -29 -8 -6
-22 -33 -30 -58 -27 -88 -47 -137 -77 -188 -16 -28 -29 -63 -29 -78 0 -15 -10
-46 -22 -69 -15 -29 -22 -62 -23 -107 -1 -41 -7 -74 -17 -90 -20 -31 -31 -91
-20 -108 14 -21 40 -3 53 36 7 21 22 50 35 65 13 16 24 40 24 53 0 15 14 40
35 61 19 20 35 46 35 58 0 12 9 30 20 40 20 18 20 17 20 -23 0 -22 -4 -43 -9
-47 -5 -3 -15 -21 -21 -40 -10 -30 -9 -38 7 -59 l19 -24 26 47 c14 25 29 64
33 85 6 38 36 75 81 102 10 6 26 33 36 59 9 26 26 57 36 69 12 12 23 44 27 74
4 29 13 59 21 67 8 8 24 36 36 62 11 27 27 55 34 63 33 36 64 79 64 88 0 13
29 36 37 29 3 -4 -2 -31 -11 -61 -10 -31 -15 -64 -11 -75 4 -12 0 -30 -9 -42
-8 -12 -12 -27 -9 -35 7 -19 31 -1 82 64 24 29 50 52 60 52 17 0 18 4 10 42
-6 23 -7 48 -4 56 5 13 8 12 24 -2 18 -17 20 -16 33 10 7 16 24 31 38 34 14 3
30 16 36 28 6 13 37 48 68 78 31 30 54 59 51 64 -3 5 0 20 6 32 13 22 13 22
20 -12 5 -23 3 -42 -5 -55 -7 -11 -16 -36 -19 -55 -3 -19 -11 -54 -17 -78 -14
-48 -8 -62 19 -45 24 15 33 6 18 -18 -13 -22 -6 -32 17 -23 9 3 21 26 27 50 9
34 16 44 31 44 19 0 20 -5 16 -53 -2 -29 -12 -68 -22 -87 -12 -26 -15 -48 -11
-85 5 -40 3 -54 -9 -64 -9 -8 -16 -29 -16 -51 0 -23 -8 -48 -21 -63 -11 -15
-23 -44 -25 -64 -3 -21 -9 -47 -14 -58 -18 -44 -31 -114 -33 -170 0 -33 -3
-62 -6 -65 -10 -8 -48 -111 -60 -160 -6 -25 -22 -94 -36 -155 -14 -60 -31
-121 -37 -135 -6 -14 -14 -45 -18 -70 -4 -25 -20 -94 -35 -155 -15 -60 -31
-126 -35 -145 -4 -19 -15 -66 -24 -105 -8 -38 -18 -88 -22 -109 -4 -22 -13
-51 -20 -65 -8 -14 -14 -44 -14 -66 0 -23 -4 -45 -9 -50 -5 -6 -16 -37 -26
-70 -9 -33 -23 -77 -31 -99 -7 -21 -11 -43 -8 -48 3 -5 -1 -20 -10 -33 -9 -13
-16 -38 -16 -55 0 -17 -7 -47 -16 -68 -9 -20 -20 -66 -24 -102 -10 -80 -27
-150 -42 -167 -8 -10 -8 -20 2 -38 11 -20 10 -34 -4 -83 -9 -32 -18 -88 -20
-125 -3 -38 -12 -77 -20 -89 -9 -12 -16 -38 -16 -56 0 -25 -7 -40 -26 -54 -22
-18 -25 -26 -19 -54 5 -28 1 -37 -20 -56 -14 -12 -25 -26 -25 -31 0 -4 -6 -15
-14 -22 -7 -8 -16 -32 -20 -55 -4 -23 -13 -49 -21 -57 -8 -8 -15 -23 -15 -32
0 -10 -9 -47 -20 -81 -11 -34 -21 -83 -21 -109 -1 -25 -4 -36 -6 -23 -6 28
-36 26 -41 -3 -7 -44 -12 -47 -35 -19 -25 29 -47 26 -47 -7 0 -11 11 -24 25
-31 39 -18 30 -53 -13 -53 -32 0 -33 -1 -27 -30 3 -16 8 -45 12 -62 4 -24 10
-33 25 -33 15 0 18 -4 13 -17 -4 -10 -21 -74 -37 -143 -16 -69 -34 -138 -40
-155 -16 -45 -21 -93 -13 -112 5 -10 10 -39 12 -65 3 -38 0 -48 -12 -48 -13 0
-14 9 -9 56 9 72 -12 71 -36 -2 -10 -28 -25 -65 -35 -83 -9 -18 -19 -66 -22
-107 l-6 -73 -18 34 c-11 19 -19 43 -19 52 0 10 -5 25 -10 33 -14 21 -23 5
-56 -100 -15 -47 -34 -97 -42 -111 -20 -35 -11 -58 21 -52 19 4 26 -1 37 -26
7 -17 9 -39 6 -48 -7 -16 -9 -15 -25 6 l-19 24 -7 -32 c-4 -18 -14 -35 -22
-38 -11 -4 -13 -15 -8 -45 6 -36 4 -43 -26 -74 -38 -39 -42 -40 -69 -17 -25
22 -25 29 0 60 15 19 18 34 14 62 -4 27 -2 41 10 50 9 7 16 28 16 47 0 18 5
36 10 39 18 11 10 25 -14 25 -26 0 -36 -21 -36 -77 0 -18 -4 -33 -10 -33 -12
0 -13 94 -1 118 5 9 13 35 18 56 9 42 33 62 33 27 0 -11 5 -23 10 -26 6 -3 10
5 10 19 0 14 -4 28 -10 31 -13 8 -13 235 0 235 6 0 10 -24 10 -52 0 -29 4 -59
9 -67 6 -9 5 -21 -1 -31 -7 -11 -8 -23 -1 -34 9 -16 12 -14 30 16 13 22 17 40
12 53 -11 28 -11 103 0 109 5 3 12 -9 16 -27 6 -29 7 -30 15 -11 4 12 4 41 -1
65 -7 33 -5 58 6 99 30 103 30 98 -1 106 -16 4 -37 13 -46 22 -24 20 -48 0
-48 -41 0 -18 -9 -41 -22 -54 -17 -18 -21 -34 -20 -66 1 -23 -2 -49 -7 -56
-16 -24 -36 30 -22 57 14 26 14 63 0 99 -9 23 -12 25 -19 12 -11 -19 -17 -220
-7 -236 5 -7 -3 -13 -20 -15 -26 -3 -28 -7 -34 -58 -3 -31 -12 -67 -19 -80 -7
-14 -19 -61 -26 -105 -21 -124 -30 -160 -46 -184 -10 -15 -14 -36 -10 -70 3
-34 0 -55 -12 -74 -10 -14 -15 -35 -12 -48 3 -13 2 -55 -2 -94 -6 -57 -10 -69
-24 -67 -13 2 -17 -12 -22 -90 -4 -51 -11 -102 -16 -113 -28 -66 -40 -110 -40
-146 0 -22 -9 -58 -20 -80 -14 -26 -23 -68 -26 -122 -6 -88 -28 -147 -56 -147
-14 0 -16 9 -11 78 3 42 10 85 14 94 5 9 9 32 9 50 0 19 7 61 16 93 24 88 34
134 43 190 5 28 13 64 19 80 10 28 32 157 38 217 8 97 17 159 29 203 7 28 16
93 20 145 4 52 15 115 25 140 10 25 23 79 30 120 7 41 19 91 27 110 8 19 14
57 14 85 0 27 4 54 8 60 5 5 11 33 14 60 18 154 26 198 36 204 22 14 69 196
58 226 -11 28 -25 15 -32 -31 -5 -33 -12 -48 -28 -55 -22 -10 -57 -79 -57
-112 0 -10 -6 -30 -14 -45 -7 -15 -17 -47 -21 -72 -4 -24 -20 -83 -36 -130
-16 -47 -29 -97 -29 -111 0 -26 -27 -116 -40 -134 -4 -5 -10 -45 -14 -88 -3
-43 -13 -92 -22 -109 -11 -21 -14 -43 -10 -69 4 -25 2 -42 -8 -51 -8 -8 -11
-26 -8 -46 3 -23 -5 -51 -29 -100 -35 -71 -41 -79 -114 -154 -25 -26 -45 -52
-45 -57 0 -8 -23 -21 -36 -21 -11 0 -2 24 15 39 10 9 22 27 26 41 4 14 21 38
36 54 16 17 29 37 29 46 0 10 13 42 29 72 16 29 36 78 45 108 9 29 23 62 33
72 13 15 14 23 5 44 -18 37 -14 107 8 173 10 31 17 67 14 79 -4 11 0 38 6 58
7 21 14 65 15 98 2 34 8 97 14 141 7 44 16 157 21 250 4 94 13 183 19 198 6
16 11 42 11 58 0 17 5 40 12 52 7 12 18 58 24 102 7 44 22 116 33 160 11 44
26 113 32 155 6 41 15 98 20 125 36 225 42 342 18 385 -6 11 -8 9 -9 -9 0 -13
-11 -34 -25 -47 -13 -12 -27 -35 -30 -51 -3 -15 -15 -50 -25 -78 -11 -27 -33
-90 -49 -140 -17 -49 -37 -108 -45 -130 -8 -22 -15 -61 -16 -86 0 -29 -6 -51
-15 -59 -10 -8 -15 -30 -15 -61 0 -46 -11 -62 -25 -38 -13 20 -37 3 -51 -36
-8 -22 -19 -69 -24 -105 -5 -36 -12 -85 -16 -110 -4 -25 -13 -52 -21 -62 -9
-9 -13 -32 -12 -55 1 -21 2 -58 1 -82 -2 -35 -5 -42 -18 -37 -12 5 -14 1 -9
-14 4 -13 -2 -37 -15 -63 -13 -23 -26 -67 -31 -97 -10 -70 -36 -169 -64 -245
-12 -33 -25 -76 -29 -97 -6 -35 -28 -54 -48 -42 -6 4 -8 65 -5 168 3 88 2 177
-3 196 -20 83 -30 161 -23 173 4 6 8 37 9 67 0 30 11 106 23 168 24 126 22
146 -25 215 -32 49 -32 49 -52 29 -20 -20 -42 -99 -42 -148 0 -14 -9 -46 -19
-72 -11 -26 -24 -76 -31 -112 -6 -36 -27 -112 -46 -170 -20 -58 -39 -125 -44
-150 -10 -54 -79 -331 -121 -486 -16 -60 -41 -164 -55 -230 -14 -65 -35 -153
-48 -194 -13 -41 -36 -124 -51 -185 -15 -60 -32 -117 -39 -125 -13 -15 -52
-179 -67 -285 -5 -33 -16 -77 -25 -97 -9 -21 -14 -49 -11 -65 6 -33 -9 -134
-28 -183 -7 -19 -18 -75 -25 -125 -6 -49 -15 -106 -20 -125 -5 -19 -12 -46
-15 -60 -3 -14 -10 -92 -16 -175 -10 -164 -19 -236 -44 -335 -9 -36 -20 -96
-26 -134 -6 -39 -20 -88 -31 -110 -18 -35 -20 -53 -15 -136 4 -84 2 -99 -14
-121 -10 -13 -19 -40 -19 -61 0 -20 -4 -39 -9 -42 -4 -3 -6 -27 -3 -54 3 -37
0 -52 -14 -66 -17 -18 -18 -18 -31 0 -7 10 -13 27 -14 38 0 12 -9 -10 -20 -49
-19 -72 -37 -196 -46 -319 -3 -42 -13 -82 -24 -100 -10 -17 -19 -47 -19 -66 0
-19 -4 -49 -9 -66 -5 -17 -5 -37 0 -45 5 -9 2 -23 -7 -38 -10 -15 -14 -34 -10
-53 3 -16 -1 -57 -9 -91 -21 -85 -46 -232 -49 -292 -7 -115 -26 -226 -45 -264
-12 -22 -21 -51 -21 -63 -1 -13 -7 -34 -15 -48 -8 -14 -14 -34 -15 -46 0 -12
-11 -26 -25 -34 -22 -12 -25 -20 -25 -64 0 -97 28 -100 82 -8 26 43 33 63 25
71 -8 8 -5 17 11 34 12 13 22 28 22 34 0 20 30 37 42 25 15 -15 -10 -93 -32
-99 -12 -3 -14 -17 -12 -70 3 -48 -1 -77 -14 -105 -17 -38 -17 -41 -1 -53 23
-17 12 -41 -22 -48 -23 -5 -31 -16 -50 -66 -12 -34 -26 -61 -32 -61 -5 0 -9
-9 -9 -20 0 -11 -6 -23 -14 -26 -14 -6 -30 -79 -21 -95 13 -20 45 12 51 51 5
33 11 40 29 40 20 0 23 -6 29 -72 5 -58 3 -84 -13 -132 -11 -34 -33 -101 -47
-151 -15 -49 -33 -104 -41 -122 -7 -17 -13 -45 -13 -62 0 -18 -8 -48 -19 -69
-22 -45 -39 -145 -51 -307 -13 -160 -28 -263 -46 -302 -8 -17 -14 -44 -14 -61
0 -16 -9 -41 -20 -55 -25 -32 -26 -63 -2 -76 23 -12 42 3 42 33 0 15 3 17 11
9 20 -20 5 -178 -24 -263 -29 -82 -57 -237 -57 -315 -1 -27 -7 -61 -15 -75 -8
-14 -14 -47 -15 -73 0 -27 -4 -57 -10 -67 -5 -10 -16 -62 -25 -117 -8 -54 -19
-112 -24 -129 -5 -17 -7 -61 -4 -98 4 -45 2 -70 -7 -81 -7 -8 -16 -43 -21 -77
-6 -35 -14 -88 -19 -118 -4 -30 -9 -922 -9 -1982 l-1 -1928 10000 0 10000 0 0
6203 0 6203 -27 -1 c-19 0 -29 6 -31 18 -4 21 36 70 49 61 15 -9 11 590 -3
604 -9 9 -75 12 -235 12 l-223 0 0 29 c0 52 -9 61 -55 61 -30 0 -45 -5 -49
-16 -10 -27 -7 -55 11 -85 14 -23 15 -31 5 -41 -10 -10 -18 -10 -40 2 -22 13
-28 25 -32 62 -6 47 -23 78 -45 78 -8 0 -15 26 -20 78 -4 42 -13 84 -20 92 -7
8 -15 24 -17 35 -2 13 -12 21 -29 23 -16 2 -32 13 -40 28 -7 14 -26 36 -41 49
-15 13 -28 29 -28 36 0 7 -8 21 -17 32 -17 18 -17 19 0 28 24 14 22 49 -3 49
-10 0 -24 9 -30 19 -5 11 -22 21 -37 23 -26 3 -28 6 -26 42 2 27 11 49 29 67
21 22 25 34 22 70 l-3 44 -106 3 -107 3 -4 59 c-2 35 -11 67 -20 77 -9 10 -19
32 -23 48 -3 17 -16 51 -27 77 -23 52 -17 71 28 88 16 6 23 20 28 56 9 72 7
100 -9 114 -8 7 -15 20 -15 30 0 10 -6 23 -14 30 -8 6 -16 26 -18 43 -2 27 -8
33 -30 35 -27 3 -28 2 -28 -46 0 -32 5 -54 15 -62 9 -8 15 -30 15 -56 0 -38 4
-46 25 -54 31 -12 31 -21 2 -48 -30 -28 -42 -28 -72 2 -19 19 -23 31 -18 59 3
20 1 37 -6 41 -6 4 -11 19 -11 33 0 14 -13 41 -30 60 -16 18 -30 43 -30 54 0
11 -6 22 -14 25 -8 3 -17 22 -21 42 -14 77 -38 128 -76 163 -31 28 -39 43 -39
70 0 19 -13 59 -29 89 -43 80 -67 129 -89 180 -11 25 -37 66 -57 90 -29 35
-36 50 -31 72 5 24 -1 34 -39 69 -65 60 -156 256 -167 358 -3 27 -28 42 -28
17 0 -9 -4 -16 -10 -16 -14 0 -13 27 2 32 21 7 -3 28 -33 28 -16 0 -39 5 -52
12 -12 6 -29 14 -37 18 -8 3 -23 21 -32 40 -9 18 -40 57 -68 87 -44 46 -53 62
-60 109 -6 35 -19 66 -35 85 -14 17 -25 39 -25 50 0 12 -7 19 -19 19 -22 0
-36 16 -45 52 -3 15 -15 32 -27 38 -29 16 -79 99 -79 132 0 21 -5 28 -19 28
-14 0 -19 10 -24 50 -8 68 -22 90 -56 90 -34 0 -54 21 -49 52 2 15 -5 30 -19
41 -13 10 -23 24 -23 30 0 7 -20 36 -44 65 -39 48 -66 106 -66 143 0 8 -15 26
-33 41 -22 17 -41 46 -55 85 -26 69 -29 73 -64 95 -14 10 -29 31 -33 47 -3 16
-21 41 -38 54 -18 13 -43 45 -55 71 -13 25 -29 46 -35 46 -17 1 -227 230 -227
248 0 4 -16 16 -36 27 -19 10 -53 42 -75 69 -21 28 -42 54 -46 58 -55 51 -94
78 -111 78 -15 0 -22 7 -24 28 -2 19 -12 31 -35 42 -17 8 -38 30 -47 48 -10
20 -23 32 -36 32 -13 0 -25 11 -34 34 -13 32 -20 36 -74 46 -47 10 -68 20 -93
46 -18 19 -40 34 -49 34 -9 0 -25 9 -35 20 -14 16 -31 20 -75 20 l-57 0 -7 43
c-4 23 -7 57 -6 75 1 51 -9 72 -34 72 -20 0 -23 -5 -22 -32 1 -19 9 -39 19
-46 14 -11 15 -17 6 -28 -6 -8 -17 -14 -25 -14 -23 0 -79 38 -102 70 -13 16
-31 30 -42 30 -10 0 -21 8 -25 19 -3 10 -32 46 -64 80 -53 56 -63 62 -110 68
-40 4 -51 10 -51 24 0 27 -11 49 -25 49 -16 0 -25 22 -25 62 0 39 -24 57 -76
58 -28 0 -47 6 -59 20 -10 11 -26 22 -36 25 -11 4 -19 15 -19 26 0 40 -19 59
-58 59 -20 0 -44 4 -51 9 -12 8 -10 12 11 22 31 13 41 41 24 64 -6 9 -41 23
-77 31 -58 13 -71 20 -100 57 -20 24 -32 50 -31 63 2 12 -6 36 -16 54 -11 17
-18 39 -15 49 4 16 -10 43 -67 126 -11 17 -31 46 -43 65 -20 30 -28 35 -62 35
-50 0 -58 -25 -20 -61 32 -30 31 -67 -3 -72 -37 -6 -69 22 -77 66 -4 29 -19
52 -55 87 -29 29 -54 46 -63 42 -8 -3 -27 3 -43 13 -29 17 -29 17 -56 -8 l-28
-26 -27 26 c-16 15 -41 30 -58 34 -16 4 -43 22 -60 40 -17 18 -44 36 -61 39
-16 4 -45 20 -64 34 -19 15 -73 48 -120 74 -47 25 -97 58 -112 72 -15 14 -32
25 -37 25 -6 0 -18 11 -27 25 -9 13 -26 27 -37 31 -21 6 -66 40 -117 88 -14
13 -40 31 -59 40 -31 15 -344 16 -3850 15 l-3816 0 -45 -37z m9970 -1747 c0
-13 -4 -14 -20 -5 -11 6 -20 13 -20 15 0 3 9 5 20 5 11 0 20 -7 20 -15z
m-7283 -427 c-3 -7 -5 -2 -5 12 0 14 2 19 5 13 2 -7 2 -19 0 -25z m33 -50 c0
-25 -3 -29 -10 -18 -13 20 -13 50 0 50 6 0 10 -15 10 -32z m7842 -15 c25 -23
23 -43 -4 -35 -28 7 -59 33 -52 44 8 13 36 9 56 -9z m-7815 -55 c-3 -7 -5 -2
-5 12 0 14 2 19 5 13 2 -7 2 -19 0 -25z m-338 -65 c1 -23 -3 -45 -9 -48 -6 -4
-10 19 -9 62 0 75 17 62 18 -14z m23 -148 c3 -47 11 -91 16 -98 16 -19 26 -93
14 -101 -6 -3 -13 11 -17 36 -4 24 -11 48 -15 53 -10 14 -20 195 -11 195 5 0
11 -38 13 -85z m88 -335 c4 -19 13 -48 18 -65 31 -91 43 -144 40 -166 -3 -16
-6 -19 -10 -9 -3 8 -11 31 -18 50 -6 19 -15 53 -19 75 -4 22 -13 50 -19 62 -7
12 -12 30 -12 41 0 11 -7 33 -15 48 -16 31 -20 66 -8 78 7 7 27 -46 43 -114z
m-1023 -262 c-2 -13 -4 -5 -4 17 -1 22 1 32 4 23 2 -10 2 -28 0 -40z m1113
-23 c0 -8 -4 -17 -10 -20 -6 -4 -10 5 -10 20 0 15 4 24 10 20 6 -3 10 -12 10
-20z m-1370 -66 c0 -44 -4 -68 -10 -64 -18 11 -12 135 7 135 2 0 3 -32 3 -71z
m1387 -31 c-3 -8 -6 -5 -6 6 -1 11 2 17 5 13 3 -3 4 -12 1 -19z m-1160 -30
c-3 -8 -6 -5 -6 6 -1 11 2 17 5 13 3 -3 4 -12 1 -19z m1220 -20 c-3 -7 -5 -2
-5 12 0 14 2 19 5 13 2 -7 2 -19 0 -25z m-1451 -94 c-6 -16 -46 -19 -46 -4 0
6 9 18 20 27 11 10 21 24 21 33 1 8 4 2 6 -13 3 -16 2 -35 -1 -43z m-40 -73
c3 -11 7 -11 20 -1 23 20 38 -2 30 -44 -4 -20 -11 -36 -16 -36 -4 0 -7 -30 -5
-67 2 -38 4 -96 4 -130 1 -35 4 -63 9 -63 4 0 6 35 4 78 -2 44 2 97 9 122 l13
45 7 -45 c14 -82 10 -186 -6 -200 -8 -7 -15 -27 -15 -45 0 -18 -7 -50 -16 -71
-9 -22 -14 -54 -11 -78 2 -23 -4 -88 -14 -146 -11 -58 -19 -126 -19 -152 0
-27 -4 -48 -10 -48 -18 0 -22 73 -15 258 16 408 20 584 13 610 -9 30 0 70 9
42 3 -8 7 -21 9 -29z m-1179 -233 c-2 -13 -4 -5 -4 17 -1 22 1 32 4 23 2 -10
2 -28 0 -40z m0 -80 c-3 -7 -5 -2 -5 12 0 14 2 19 5 13 2 -7 2 -19 0 -25z
m-18 -186 c1 -18 -3 -42 -9 -52 -22 -41 -48 -460 -29 -460 9 0 14 66 10 136
-2 40 12 68 21 41 8 -21 -11 -309 -23 -362 -7 -27 -14 -86 -16 -130 -4 -107
-14 -205 -20 -205 -2 0 -12 8 -21 17 -19 18 -19 22 -9 363 7 234 14 332 33
423 8 38 14 90 14 116 0 26 7 70 15 97 8 27 15 60 16 74 l1 25 8 -25 c4 -14 8
-40 9 -58z m-1999 54 c0 -3 -4 -8 -10 -11 -5 -3 -10 -1 -10 4 0 6 5 11 10 11
6 0 10 -2 10 -4z m2140 -126 c0 -11 -7 -20 -15 -20 -27 0 -18 30 13 39 1 1 2
-8 2 -19z m-17 -91 l13 -44 8 38 c4 21 11 35 17 32 14 -9 11 -73 -5 -82 -8 -4
-18 -21 -21 -36 -6 -24 -4 -29 15 -34 17 -5 20 -11 15 -30 -3 -13 -8 -94 -10
-181 -9 -314 -8 -356 4 -360 7 -2 11 16 11 58 0 37 6 73 16 92 13 25 14 36 5
50 -9 15 -7 19 15 24 38 10 44 -4 34 -85 -6 -41 -7 -90 -4 -111 3 -20 1 -53
-4 -74 -8 -26 -8 -65 -1 -123 7 -62 6 -89 -2 -99 -9 -11 -8 -14 5 -14 13 0 16
-14 15 -91 0 -68 -4 -92 -15 -96 -8 -3 -14 -11 -14 -19 0 -8 6 -11 15 -8 10 4
15 0 15 -14 0 -15 -5 -19 -20 -15 -14 4 -20 0 -22 -13 -2 -29 -7 -154 -7 -196
-1 -44 -15 -50 -26 -10 -17 61 -20 319 -4 338 6 7 4 16 -6 24 -9 8 -12 18 -6
29 12 23 15 308 3 315 -15 9 -36 -23 -39 -58 -3 -33 -10 -150 -17 -278 -2 -42
-7 -82 -11 -88 -11 -18 -44 -11 -56 12 -18 34 -6 632 17 820 16 135 20 147 41
157 24 11 32 46 12 53 -14 5 -23 87 -15 133 9 44 12 42 29 -16z m-1140 -269
c-3 -11 -7 -20 -9 -20 -2 0 -4 9 -4 20 0 11 4 20 9 20 5 0 7 -9 4 -20z m1449
-21 c3 -17 3 -137 1 -267 -2 -130 -3 -246 -2 -257 3 -42 1 -72 -10 -120 -6
-27 -12 -96 -13 -152 -2 -56 -7 -105 -11 -109 -17 -17 -26 23 -28 116 0 52 -2
115 -2 140 -1 25 3 74 7 110 5 36 8 84 7 107 0 23 3 44 8 48 6 3 7 64 4 150
-5 107 -3 148 6 159 7 8 12 25 11 38 -6 67 13 98 22 37z m-2297 -23 c8 -19 20
-36 27 -38 11 -4 11 -14 1 -51 -15 -53 -17 -117 -5 -117 4 0 13 5 20 12 20 20
25 0 13 -54 -39 -172 -52 -245 -60 -333 -4 -44 -12 -89 -18 -100 -6 -11 -14
-51 -18 -90 -4 -38 -11 -74 -15 -80 -15 -18 -22 -82 -11 -89 6 -4 11 0 11 11
0 20 43 105 72 142 10 13 21 41 24 63 4 21 12 38 19 38 14 0 13 -6 -25 -145
-12 -44 -26 -101 -30 -127 -5 -26 -13 -55 -18 -65 -8 -16 -35 -119 -85 -333
-9 -36 -20 -80 -26 -97 -6 -18 -16 -48 -22 -65 -6 -18 -17 -58 -24 -88 -25
-102 -38 -145 -47 -157 -16 -20 -35 -118 -27 -139 11 -29 11 -56 -2 -49 -15
10 -59 -34 -59 -59 -1 -12 -7 -32 -15 -46 -8 -14 -14 -37 -15 -52 0 -15 -13
-68 -30 -118 -16 -50 -30 -102 -30 -116 0 -13 -6 -35 -14 -47 -7 -12 -21 -60
-30 -107 -10 -47 -24 -108 -32 -137 -18 -65 -33 -161 -43 -278 -4 -49 -12 -99
-18 -110 -14 -27 -31 -105 -39 -185 -3 -36 -12 -75 -20 -87 -8 -12 -14 -47
-14 -78 0 -41 -4 -55 -14 -55 -12 0 -14 15 -10 78 3 42 11 95 19 117 22 66 37
224 32 328 -3 55 -8 101 -11 105 -3 3 -6 24 -7 46 0 23 -4 59 -8 81 l-7 40 -8
-32 c-4 -17 -6 -55 -5 -85 1 -29 -5 -79 -15 -111 -10 -34 -15 -69 -11 -87 5
-21 -1 -44 -19 -80 -14 -29 -26 -61 -26 -73 -1 -19 -3 -18 -17 8 -9 17 -18 25
-20 18 -5 -15 -33 -18 -33 -4 0 5 7 14 15 21 11 9 15 33 15 91 0 43 4 80 10
84 5 3 9 29 9 58 -1 59 8 138 21 182 8 27 15 68 39 245 38 275 60 411 87 545
8 39 18 95 22 125 4 30 11 60 15 66 4 7 11 62 17 124 5 61 14 126 19 143 5 18
17 68 27 112 9 44 21 84 26 90 4 5 8 27 8 50 0 22 5 56 11 75 5 19 23 85 39
145 51 194 179 566 241 701 10 23 19 49 19 58 0 10 7 24 15 32 8 9 15 30 15
49 0 24 5 34 20 38 13 3 20 14 20 29 0 24 16 48 33 48 4 0 14 -15 22 -34z
m845 -61 c0 -30 -4 -55 -9 -55 -16 0 -27 25 -25 60 2 50 2 50 19 50 12 0 15
-13 15 -55z m-1800 35 c0 -5 -5 -10 -11 -10 -5 0 -7 5 -4 10 3 6 8 10 11 10 2
0 4 -4 4 -10z m3420 -106 c0 -47 -4 -115 -10 -152 -5 -37 -13 -107 -17 -157
l-7 -90 -8 80 c-13 122 -18 146 -29 140 -5 -4 -9 -15 -9 -25 0 -10 -5 -20 -10
-22 -6 -2 -13 -49 -17 -106 -3 -56 -10 -105 -15 -108 -10 -6 -10 -1 -8 111 1
75 6 96 26 131 18 31 21 43 12 46 -14 5 -13 147 2 162 11 11 24 -38 16 -60 -8
-21 5 -97 14 -87 5 4 10 55 13 113 3 58 6 106 6 108 1 1 10 2 21 2 18 0 20 -7
20 -86z m-1971 -71 c-6 -18 -8 -37 -4 -42 3 -6 0 -19 -7 -30 -9 -15 -9 -25 0
-45 9 -20 7 -32 -10 -68 -11 -23 -22 -63 -24 -88 -7 -96 -21 -174 -32 -178
-18 -6 -14 -49 4 -56 14 -5 13 -9 -4 -33 -21 -31 -52 -121 -52 -153 0 -11 5
-29 12 -40 10 -15 9 -26 -3 -52 -12 -24 -16 -61 -15 -135 1 -107 10 -141 21
-77 4 22 10 50 15 64 5 14 12 60 16 103 3 42 10 77 15 77 5 0 9 25 9 56 0 36
5 61 14 68 14 11 46 158 46 209 0 15 7 44 15 64 9 21 18 64 22 98 3 33 12 70
19 82 8 12 14 41 14 63 0 34 3 41 18 38 13 -3 16 -12 14 -46 -2 -25 1 -42 7
-42 6 0 11 5 11 10 0 6 15 9 33 8 32 -3 32 -3 34 47 2 66 1 65 14 65 6 0 9
-14 7 -32 -2 -27 0 -33 17 -33 17 0 20 7 22 50 0 28 2 57 2 67 1 20 59 42 76
28 9 -7 9 -24 -1 -72 -22 -105 -37 -211 -36 -258 1 -54 -16 -150 -30 -168 -6
-7 -8 -32 -6 -57 3 -25 2 -45 -2 -45 -5 0 -10 4 -12 10 -1 5 -13 7 -24 4 -20
-5 -21 -7 -7 -35 15 -31 11 -79 -7 -79 -6 0 -10 -12 -10 -27 l0 -28 20 25 20
25 0 -27 c0 -16 -4 -28 -10 -28 -13 0 -13 -117 -1 -125 13 -7 41 34 41 60 1
24 23 55 40 55 17 0 4 -87 -18 -120 -9 -14 -19 -45 -22 -70 -5 -43 -7 -45 -36
-45 -29 0 -31 -2 -24 -27 5 -16 3 -41 -5 -65 -8 -21 -14 -48 -15 -60 0 -12 -7
-28 -15 -37 -8 -8 -15 -28 -15 -44 0 -16 -7 -35 -15 -42 -8 -7 -15 -27 -15
-45 0 -17 -3 -35 -7 -39 -5 -4 -13 -29 -20 -54 -6 -26 -16 -63 -21 -82 -5 -20
-22 -55 -38 -79 -48 -71 -64 -105 -64 -132 0 -25 -21 -45 -34 -32 -9 9 -7 66
3 99 5 16 11 52 14 80 3 46 2 52 -23 66 -29 17 -53 10 -50 -13 5 -35 0 -43
-14 -24 -13 18 -15 17 -25 -21 -6 -22 -17 -48 -25 -59 -9 -11 -16 -30 -16 -43
0 -13 -13 -63 -30 -112 -16 -49 -30 -99 -30 -112 0 -13 -4 -28 -9 -34 -5 -5
-11 -20 -13 -33 -1 -14 -9 -26 -16 -29 -15 -5 -15 61 0 91 5 10 9 62 10 115 0
69 4 102 14 113 22 24 16 294 -6 294 -8 0 -21 4 -28 9 -19 11 -20 7 -25 -58
-3 -32 -10 -63 -16 -69 -6 -6 -11 -32 -11 -58 0 -45 -13 -70 -28 -54 -18 18 4
234 59 575 28 173 47 272 85 430 9 36 20 90 24 120 16 98 59 194 84 184 14 -5
26 24 26 62 0 12 7 24 15 28 9 3 15 18 15 36 0 17 7 38 15 46 17 17 20 54 5
54 -5 0 -10 11 -10 25 0 31 13 32 28 3 l11 -23 0 22 c1 12 6 34 12 50 l12 28
8 -30 c5 -18 5 -42 -2 -62z m628 -215 c-3 -7 -5 -2 -5 12 0 14 2 19 5 13 2 -7
2 -19 0 -25z m-759 10 c-6 -18 -28 -21 -28 -4 0 9 7 16 16 16 9 0 14 -5 12
-12z m740 -139 c2 -49 -2 -79 -12 -101 -9 -17 -16 -53 -16 -79 0 -26 -4 -50
-9 -53 -4 -3 -11 -26 -15 -52 -3 -26 -11 -53 -17 -60 -7 -8 -7 -19 -1 -30 6
-11 11 -13 16 -5 4 6 12 11 18 11 14 0 2 -72 -33 -193 -15 -55 -31 -121 -34
-146 -11 -79 -47 -214 -60 -228 -22 -22 -28 -15 -21 25 4 20 11 64 15 97 12
76 26 144 46 220 18 69 21 217 6 258 -17 44 -14 67 9 67 14 0 21 9 26 38 4 20
11 39 15 42 18 12 21 66 5 83 -22 22 -11 67 16 67 16 0 18 4 12 18 -13 27 -9
83 6 92 21 13 24 6 28 -71z m83 -22 c-13 -13 -15 50 -3 80 5 13 8 5 10 -26 2
-24 -2 -49 -7 -54z m-24 -99 c-3 -20 -4 -21 -11 -5 -5 9 -5 29 0 45 7 25 8 26
11 5 3 -13 3 -33 0 -45z m-287 -51 c0 -17 -29 -57 -41 -57 -14 0 -11 19 9 45
19 27 32 32 32 12z m262 -58 c-2 -16 -8 -29 -13 -29 -11 0 -12 51 -2 76 6 17
7 17 13 -1 3 -9 4 -30 2 -46z m575 -36 c-2 -16 -4 -3 -4 27 0 30 2 43 4 28 2
-16 2 -40 0 -55z m-893 -39 c-3 -53 -9 -73 -18 -63 -7 7 6 119 14 119 4 0 6
-25 4 -56z m286 -9 c0 -19 -4 -35 -10 -35 -11 0 -14 53 -3 63 11 12 13 8 13
-28z m607 -152 c-2 -21 -4 -6 -4 32 0 39 2 55 4 38 2 -18 2 -50 0 -70z m-743
71 c10 -27 6 -78 -8 -106 -8 -16 -18 -48 -22 -73 -3 -25 -10 -48 -15 -51 -5
-3 -9 -18 -9 -33 0 -36 -22 -66 -44 -58 -12 5 -14 11 -7 24 6 10 17 52 26 94
9 42 22 85 30 95 8 10 15 33 15 49 1 62 20 95 34 59z m1296 -70 c0 -21 -2 -23
-19 -12 -15 9 -17 16 -10 30 13 24 29 14 29 -18z m-323 -31 c-3 -10 -5 -2 -5
17 0 19 2 27 5 18 2 -10 2 -26 0 -35z m-1064 -247 c8 -20 -15 -107 -27 -103
-6 2 -12 31 -14 64 -3 57 -1 61 17 56 11 -3 22 -10 24 -17z m1094 -68 c-3 -8
-6 -5 -6 6 -1 11 2 17 5 13 3 -3 4 -12 1 -19z m-1125 -119 c-1 -19 -9 -39 -17
-45 -9 -7 -15 -28 -15 -56 0 -44 -22 -90 -36 -75 -4 4 0 29 9 55 9 26 17 64
17 85 0 40 19 79 35 73 5 -2 9 -18 7 -37z m74 -97 c-12 -11 -16 6 -9 39 l8 34
3 -33 c2 -19 1 -36 -2 -40z m-713 -7 c4 -8 2 -17 -3 -20 -6 -4 -10 3 -10 14 0
25 6 27 13 6z m697 -60 c0 -19 -4 -35 -10 -35 -11 0 -13 30 -4 54 10 25 14 19
14 -19z m-698 -57 c-9 -9 -12 -7 -12 12 0 19 3 21 12 12 9 -9 9 -15 0 -24z
m14883 23 c9 -15 -14 -24 -43 -16 -20 5 -23 8 -11 16 18 11 46 12 54 0z
m-14674 -327 l-21 -27 0 43 c0 29 6 47 18 56 15 11 17 9 20 -17 2 -18 -4 -39
-17 -55z m14849 -154 c0 -35 -10 -38 -34 -11 -21 23 -14 41 15 41 14 0 19 -7
19 -30z m-15550 -115 c0 -19 -4 -35 -10 -35 -11 0 -14 53 -3 63 11 12 13 8 13
-28z m-33 -232 c-3 -10 -5 -2 -5 17 0 19 2 27 5 18 2 -10 2 -26 0 -35z m-1595
-359 c-2 -13 -8 -21 -13 -18 -11 6 -12 48 -2 57 11 12 20 -12 15 -39z m17728
16 c0 -31 -16 -41 -26 -15 -8 19 2 45 16 45 5 0 10 -13 10 -30z m-16713 -62
c-3 -8 -6 -5 -6 6 -1 11 2 17 5 13 3 -3 4 -12 1 -19z m16713 -123 c0 -25 -14
-34 -24 -16 -8 12 3 41 15 41 5 0 9 -11 9 -25z m-16532 -114 c-13 -21 -28 -19
-28 5 0 8 9 14 20 14 17 0 19 -3 8 -19z m16710 -65 c5 -40 -11 -52 -37 -30
-34 30 -26 68 14 62 14 -2 21 -12 23 -32z m-16951 -73 c-3 -10 -5 -4 -5 12 0
17 2 24 5 18 2 -7 2 -21 0 -30z m-86 -296 c-4 -61 -11 -59 -11 3 0 29 3 50 7
46 4 -4 6 -26 4 -49z m336 -2 c9 -7 13 -22 11 -40 l-4 -30 -13 30 c-7 17 -14
44 -16 60 -1 17 0 21 2 10 3 -10 12 -24 20 -30z m-707 -105 c14 -25 13 -60 -2
-60 -6 0 -19 -7 -29 -15 -15 -15 -17 -12 -23 39 -4 31 -5 60 -1 66 8 13 41 -4
55 -30z m716 -27 c-10 -10 -19 5 -10 18 6 11 8 11 12 0 2 -7 1 -15 -2 -18z
m-486 -233 c0 -5 -6 -15 -14 -22 -8 -8 -16 -23 -19 -34 -2 -10 -5 0 -6 23 -1
25 4 43 12 46 14 5 27 -1 27 -13z m6838 -2 c-7 -19 -38 -22 -38 -4 0 10 9 16
21 16 12 0 19 -5 17 -12z m-473 -28 c-44 -11 -98 -11 -115 0 -10 7 10 9 65 9
58 -1 72 -3 50 -9z m255 -75 c10 -9 47 -18 93 -21 66 -6 77 -5 83 10 8 21 111
23 140 1 10 -8 33 -15 50 -15 20 0 40 -10 59 -30 19 -19 39 -30 57 -30 26 0
68 -26 68 -42 0 -5 -11 -8 -24 -8 -14 0 -27 -4 -30 -9 -16 -25 118 -30 144 -6
16 14 19 13 34 -9 10 -16 22 -23 31 -20 13 5 15 -10 15 -103 0 -60 -4 -113 -9
-118 -6 -6 -11 -32 -13 -60 -3 -46 -5 -50 -30 -53 -29 -4 -35 7 -40 78 l-3 35
-55 -2 c-30 -2 -61 -5 -67 -8 -20 -7 -18 -199 2 -215 12 -10 15 -37 15 -120 0
-83 3 -110 15 -120 21 -18 22 -212 1 -230 -8 -6 -16 -28 -18 -48 -2 -30 -8
-38 -25 -40 -15 -2 -23 -10 -23 -23 0 -11 -7 -19 -17 -19 -13 0 -14 -3 -5 -12
7 -7 12 -19 12 -27 0 -8 7 -23 17 -33 15 -17 15 -19 0 -36 -10 -10 -17 -35
-17 -54 0 -20 -7 -52 -15 -71 -8 -20 -15 -53 -15 -74 -1 -61 -24 -130 -53
-161 -15 -15 -27 -35 -27 -44 0 -9 -5 -20 -11 -24 -6 -3 -8 -15 -6 -26 6 -22
-19 -106 -39 -129 -8 -8 -14 -21 -14 -28 0 -15 -31 -64 -47 -74 -9 -5 -10 -15
-3 -33 9 -23 7 -27 -20 -37 -34 -13 -36 -23 -15 -63 8 -16 15 -37 15 -47 0 -9
11 -23 25 -29 33 -15 32 -25 -5 -33 l-30 -7 0 -108 c0 -65 -4 -111 -10 -115
-7 -5 -9 -44 -6 -113 4 -84 8 -108 20 -110 13 -3 15 -24 13 -125 -2 -116 -3
-121 -24 -127 -22 -5 -22 -6 -8 -34 8 -15 15 -34 15 -41 0 -7 23 -35 50 -63
28 -28 50 -55 50 -60 0 -5 13 -15 30 -22 25 -11 29 -17 27 -49 -2 -30 2 -37
19 -39 12 -2 26 -13 31 -25 6 -12 24 -51 41 -87 20 -42 33 -86 35 -123 4 -50
10 -64 46 -107 29 -34 41 -58 41 -80 0 -39 39 -81 68 -73 13 3 25 -3 36 -18
14 -21 14 -24 0 -41 -23 -24 -11 -45 32 -57 20 -5 44 -17 54 -26 10 -9 37 -19
60 -22 25 -4 44 -13 51 -24 5 -11 25 -25 43 -33 45 -19 76 -54 76 -87 0 -19 6
-30 20 -34 11 -4 32 -17 47 -31 17 -16 38 -24 60 -24 52 0 72 -15 79 -61 7
-45 40 -69 93 -69 21 0 35 -8 50 -29 12 -16 21 -33 21 -38 1 -12 50 -46 50
-33 0 5 3 9 8 8 4 -1 17 4 30 11 31 17 52 7 52 -24 0 -23 -4 -25 -43 -25 -47
0 -69 -14 -60 -37 6 -15 -12 -33 -35 -33 -7 0 -17 11 -21 23 -7 19 -22 27 -69
37 -39 8 -66 9 -78 2 -11 -5 -34 -12 -52 -16 -28 -5 -35 -3 -39 14 -6 24 -4
24 -39 5 -16 -8 -38 -15 -48 -15 -20 0 -56 -27 -56 -41 0 -5 -22 -29 -50 -55
-39 -36 -50 -54 -50 -77 0 -17 -10 -44 -23 -61 -13 -17 -29 -47 -36 -66 -47
-124 -99 -207 -133 -214 -15 -3 -29 -14 -33 -27 -4 -11 -31 -45 -60 -75 -39
-39 -55 -62 -57 -86 -3 -31 -5 -33 -48 -36 -55 -4 -65 -13 -62 -56 2 -27 -2
-35 -20 -39 -19 -5 -20 -9 -10 -19 11 -11 16 -9 27 6 12 16 23 18 70 13 33 -3
65 -14 81 -26 15 -12 34 -21 43 -21 50 0 46 -55 -5 -64 -18 -4 -36 -11 -39
-16 -9 -15 -18 -114 -20 -221 -2 -71 -7 -103 -19 -120 -22 -32 -20 -65 8 -124
25 -54 47 -77 97 -104 45 -24 92 -14 169 37 91 61 166 76 251 50 45 -13 51
-35 17 -66 -108 -98 -193 -153 -238 -156 -21 -1 -45 -8 -53 -14 -8 -7 -36 -15
-63 -18 -27 -4 -56 -12 -64 -19 -8 -7 -39 -18 -68 -24 -30 -6 -61 -15 -70 -20
-9 -5 -42 -11 -72 -14 -69 -8 -113 -23 -169 -59 -25 -15 -51 -28 -57 -28 -20
0 -175 -108 -214 -149 -19 -20 -56 -54 -82 -75 -26 -21 -50 -47 -54 -59 -4
-12 -36 -53 -70 -92 -35 -38 -64 -73 -64 -77 0 -4 -6 -8 -12 -8 -7 -1 -29 -24
-48 -52 -19 -29 -47 -64 -62 -79 -15 -15 -39 -49 -52 -76 -14 -27 -34 -57 -45
-67 -11 -10 -23 -31 -26 -47 -4 -16 -15 -34 -26 -39 -10 -6 -19 -16 -19 -23 0
-7 -24 -51 -53 -99 -29 -47 -62 -105 -72 -127 -10 -23 -24 -41 -31 -41 -7 0
-18 -10 -25 -22 -6 -13 -24 -36 -39 -53 -16 -16 -37 -46 -47 -65 -15 -28 -28
-37 -61 -44 -30 -7 -42 -15 -42 -27 0 -11 -11 -20 -29 -24 -17 -3 -56 -23 -88
-44 -32 -21 -70 -45 -85 -55 -16 -9 -34 -32 -42 -50 -8 -18 -19 -37 -25 -40
-6 -4 -11 -37 -11 -76 0 -58 4 -73 25 -98 14 -17 25 -34 25 -39 0 -5 11 -20
25 -33 l24 -23 128 17 c70 10 139 23 153 31 14 8 37 16 51 19 14 3 31 17 37
31 6 14 19 25 27 25 8 0 48 11 87 25 39 14 82 25 95 25 16 0 30 11 44 35 12
19 28 35 37 35 20 0 90 61 218 188 89 89 105 98 157 93 9 -1 17 4 17 13 0 8
12 24 26 35 23 18 29 19 46 7 24 -17 32 -92 11 -100 -16 -7 -17 -30 -1 -56 10
-15 10 -27 -1 -55 -22 -61 -29 -152 -15 -197 3 -9 -3 -39 -12 -67 -18 -55 -14
-78 13 -88 10 -4 26 -17 36 -29 37 -48 79 -64 163 -64 44 0 96 5 116 10 26 8
50 8 77 0 33 -9 51 -7 113 14 89 29 155 40 163 26 3 -5 17 -10 31 -10 36 0 29
-17 -10 -24 -25 -5 -37 -14 -46 -36 -10 -24 -20 -31 -52 -37 -37 -5 -40 -8
-35 -33 7 -30 -8 -50 -35 -50 -23 0 -23 -12 0 -33 20 -19 220 -34 295 -23 40
6 47 11 47 29 0 16 -9 26 -30 34 -16 6 -30 16 -30 22 0 9 53 17 83 12 4 0 7 3
7 9 0 5 -4 10 -10 10 -5 0 -10 4 -10 9 0 4 23 11 51 14 28 4 56 10 63 15 6 6
27 13 46 17 19 3 43 9 53 11 11 4 17 0 17 -10 0 -19 16 -29 31 -20 7 4 2 15
-15 30 -14 13 -28 24 -31 24 -4 0 -13 6 -20 14 -8 7 -33 17 -57 21 l-43 7 58
14 c31 7 70 20 85 28 15 8 50 17 77 21 28 4 55 11 60 15 17 13 114 28 220 35
55 3 141 12 190 20 50 8 119 14 154 13 45 -1 67 3 75 13 24 31 107 51 121 29
8 -13 53 -6 93 15 35 18 43 18 211 -5 59 -8 87 -8 95 0 15 15 55 12 72 -5 10
-9 15 -31 14 -58 -3 -67 -3 -67 35 -67 38 0 95 -24 95 -40 0 -5 23 -10 52 -12
46 -3 53 -6 58 -28 6 -25 8 -25 113 -28 l107 -3 0 -84 0 -85 -87 -1 c-137 -2
-127 2 -135 -49 -3 -25 -7 -67 -7 -93 l-1 -48 -37 3 -38 3 0 -111 0 -112 -74
-4 c-45 -3 -76 -10 -81 -18 -7 -11 -12 -10 -25 3 -9 10 -32 17 -51 17 -29 0
-34 3 -34 24 0 44 -95 108 -114 77 -18 -28 -123 -17 -118 12 2 11 -15 25 -52
43 -30 15 -58 36 -65 50 -8 18 -19 24 -41 24 -16 0 -44 9 -62 20 -19 11 -51
20 -74 20 -25 0 -47 6 -54 15 -7 8 -21 15 -32 15 -11 0 -34 6 -51 14 -65 29
-590 52 -607 27 -3 -4 -56 -16 -117 -26 -63 -10 -118 -24 -124 -31 -6 -8 -26
-14 -43 -14 -49 -1 -121 -24 -124 -40 -6 -27 -34 -50 -71 -56 -46 -9 -101 -36
-125 -63 -11 -12 -25 -21 -32 -21 -7 0 -26 -11 -42 -25 -16 -13 -31 -22 -34
-20 -7 8 -60 -17 -85 -40 -27 -23 -30 -70 -6 -97 13 -15 14 -24 6 -53 -7 -21
-7 -37 -2 -41 5 -3 9 -16 9 -30 0 -21 5 -24 33 -24 19 0 37 -3 41 -7 4 -4 36
-6 71 -5 43 3 72 -1 93 -12 35 -18 78 -21 87 -6 9 15 63 12 72 -4 15 -25 80
-38 156 -31 40 4 79 11 88 16 9 5 41 11 71 15 51 6 55 5 61 -16 5 -18 0 -24
-24 -33 -18 -7 -28 -18 -27 -27 4 -17 11 -17 178 -5 91 7 107 6 119 -9 8 -10
29 -16 55 -16 34 0 48 -6 71 -30 26 -28 31 -29 41 -15 9 11 24 15 51 13 31 -2
39 -7 41 -26 2 -14 15 -27 35 -36 18 -7 38 -20 46 -29 7 -10 21 -17 31 -17 10
0 23 -7 30 -15 7 -8 19 -15 27 -15 7 0 16 -7 19 -15 8 -19 58 -19 74 0 7 8 24
15 38 15 34 0 132 -94 132 -127 0 -23 2 -23 113 -24 212 -2 257 -4 259 -14 2
-5 -9 -11 -24 -13 -16 -2 -28 -7 -28 -10 0 -17 42 -42 69 -42 16 0 34 -7 41
-15 10 -12 39 -15 139 -15 96 0 132 -4 147 -15 10 -8 33 -15 50 -15 19 0 39
-9 54 -25 24 -26 26 -24 -25 -40 -8 -2 -15 -9 -15 -15 0 -5 7 -10 15 -10 17 0
18 -5 15 -80 -2 -62 -5 -69 -22 -52 -7 7 -19 12 -28 12 -8 1 -26 9 -39 20 -19
16 -22 27 -20 64 l4 44 -40 -5 c-47 -5 -60 -13 -21 -13 23 0 27 -4 24 -23 -2
-16 -11 -23 -30 -25 -22 -3 -28 -9 -28 -28 0 -19 5 -24 24 -24 14 0 28 5 31
10 3 6 13 10 21 10 11 0 14 -15 14 -64 0 -60 2 -64 25 -70 15 -4 27 -16 31
-31 3 -14 9 -25 13 -25 3 0 15 -7 25 -15 19 -15 19 -15 1 -28 -12 -10 -15 -16
-6 -21 6 -4 14 0 17 8 13 33 53 2 54 -41 0 -12 5 -25 10 -28 6 -3 10 -12 9
-18 0 -9 -2 -9 -6 1 -2 6 -11 12 -19 12 -8 0 -14 7 -14 15 0 16 -16 20 -24 6
-3 -5 1 -11 9 -15 8 -3 15 -15 15 -26 0 -16 7 -20 31 -20 20 0 28 4 23 12 -4
7 -3 8 5 4 6 -4 9 -11 6 -16 -3 -4 2 -13 10 -20 19 -16 19 -37 -1 -75 -9 -18
-14 -48 -12 -79 3 -45 1 -50 -27 -66 -25 -14 -31 -24 -33 -59 -3 -38 -7 -43
-41 -57 -29 -11 -43 -26 -57 -55 -18 -41 -60 -79 -86 -79 -16 0 -68 -54 -68
-69 0 -19 -68 -81 -89 -81 -12 0 -31 -11 -43 -25 -12 -14 -28 -25 -35 -25 -7
0 -13 -8 -13 -18 0 -13 -15 -25 -42 -38 -24 -10 -57 -33 -74 -51 -36 -38 -60
-42 -69 -13 -9 28 -21 25 -61 -15 -35 -35 -48 -41 -119 -49 -74 -8 -140 -25
-200 -52 -91 -41 -91 -40 -235 -59 -74 -9 -168 -26 -209 -37 -40 -11 -83 -17
-95 -14 -11 3 -50 -1 -86 -9 -183 -40 -594 -45 -860 -11 -63 9 -143 15 -178
16 -35 0 -88 9 -121 20 -32 11 -92 24 -132 30 -100 15 -213 46 -274 75 -27 13
-81 29 -120 35 -38 7 -79 20 -90 30 -24 21 -45 29 -110 41 -71 13 -181 46
-245 74 -64 27 -155 55 -179 55 -31 0 -145 51 -159 71 -8 12 -25 19 -46 19
-20 0 -50 12 -77 30 -24 16 -48 30 -54 30 -5 0 -23 7 -40 16 -16 9 -52 23 -80
31 -27 8 -68 26 -91 39 -22 13 -48 24 -56 24 -9 0 -21 6 -27 14 -7 8 -26 18
-42 21 -19 4 -34 16 -39 31 -10 26 -12 27 -77 44 -32 8 -43 16 -43 30 0 22
-10 26 -27 9 -11 -11 -26 -4 -123 51 -19 11 -60 25 -92 31 -32 6 -58 16 -58
20 0 5 7 9 15 9 8 0 15 5 15 10 0 6 -9 10 -20 10 -11 0 -20 6 -20 13 0 18 -72
72 -92 69 -10 -2 -31 6 -47 17 -16 12 -41 21 -56 21 -15 0 -36 10 -49 25 -13
14 -34 25 -47 25 -43 0 -154 71 -175 111 -9 18 -23 29 -35 29 -25 0 -79 27
-79 40 0 5 -10 15 -23 22 -70 39 -146 95 -150 111 -3 9 -13 17 -24 17 -46 0
-89 21 -106 52 -14 25 -15 33 -5 39 23 15 -7 31 -62 34 -28 1 -54 6 -58 9 -9
10 19 26 46 26 37 0 10 36 -32 43 -46 7 -95 44 -111 84 -10 25 -20 33 -39 33
-17 0 -30 10 -45 35 -14 24 -28 35 -44 35 -28 0 -49 22 -70 71 -8 19 -33 50
-55 67 -22 18 -42 43 -44 55 -2 15 -14 25 -38 33 -24 8 -41 23 -55 48 -11 21
-29 43 -40 49 -30 16 -57 55 -83 117 -38 87 -48 104 -76 118 -15 8 -38 38 -57
77 -19 40 -38 65 -48 65 -9 0 -28 22 -44 53 -24 45 -74 117 -171 245 -13 19
-28 47 -31 63 -4 16 -10 29 -15 29 -9 0 -82 126 -111 190 -53 119 -110 228
-128 244 -12 11 -21 23 -21 29 0 18 -92 222 -110 242 -9 11 -22 38 -28 60 -28
105 -157 405 -173 405 -5 0 -9 13 -9 29 0 15 -14 55 -31 87 -17 32 -41 77 -53
99 -11 23 -31 51 -43 63 -13 12 -23 30 -23 41 0 10 -8 29 -19 42 -16 21 -68
125 -141 284 -10 22 -34 74 -53 115 -19 41 -38 86 -42 100 -4 14 -27 77 -52
140 -135 344 -240 731 -266 990 -17 161 -16 179 32 625 l7 70 8 -50 c4 -27 11
-66 16 -85 8 -33 8 -32 10 20 1 30 5 80 9 110 7 53 7 54 14 20 3 -19 8 -78 11
-130 2 -52 9 -106 15 -120 6 -14 15 -70 21 -125 22 -225 38 -364 45 -374 3 -6
8 -45 10 -86 2 -41 11 -88 20 -104 8 -17 15 -43 15 -58 0 -37 32 -127 53 -150
8 -10 17 -36 19 -58 2 -28 8 -41 21 -43 14 -3 17 5 17 53 0 40 -4 57 -15 61
-16 7 -20 39 -6 48 5 3 12 -5 15 -19 8 -30 22 -32 31 -5 4 12 -4 42 -19 76
-32 69 -32 91 -5 121 20 21 22 32 20 149 -1 70 -7 136 -12 146 -8 15 -5 29 12
61 14 28 22 62 24 102 1 43 8 70 24 95 18 28 21 45 18 85 -4 39 -1 55 14 74
12 15 19 39 19 68 0 48 16 88 49 117 12 11 21 27 21 37 0 24 21 69 32 69 4 0
8 8 8 17 0 22 39 63 59 63 9 0 27 20 40 45 22 42 23 46 7 64 -15 16 -15 19 -1
31 8 7 15 27 15 45 0 18 8 43 18 55 15 18 24 21 49 16 18 -4 37 -14 44 -22 6
-8 18 -14 27 -14 18 0 41 -29 42 -52 0 -26 24 -22 107 17 41 19 78 35 84 35
17 0 113 -32 123 -41 14 -12 73 -11 81 1 3 6 17 10 30 10 13 0 27 -4 30 -10 3
-5 23 -10 43 -10 21 0 54 -9 75 -20 20 -11 47 -20 60 -20 12 0 40 -9 62 -20
22 -11 47 -20 57 -20 10 0 46 -10 80 -21 34 -12 76 -21 92 -21 29 1 100 -19
138 -39 10 -5 31 -9 47 -9 16 0 34 -7 41 -14 6 -8 32 -16 57 -18 34 -2 49 -8
57 -23 17 -30 27 -35 76 -35 141 1 498 -13 515 -20 44 -18 55 -19 55 -5 0 33
45 -2 52 -40 3 -18 13 -21 85 -25 46 -3 88 -11 95 -17 6 -7 27 -13 45 -13 31
0 33 -2 33 -35 0 -25 5 -37 18 -41 9 -3 25 -10 34 -15 25 -13 28 -12 28 15 0
47 8 53 58 48 36 -3 51 0 61 12 7 9 28 16 46 16 18 0 38 7 45 15 17 20 30 19
30 -4 0 -24 25 -45 45 -37 8 3 15 14 15 24 0 10 8 26 18 34 26 22 100 58 121
58 25 0 33 11 20 27 -9 10 -8 18 3 31 9 9 19 27 22 40 6 17 15 22 41 22 32 0
48 12 50 35 3 36 18 45 71 45 39 0 56 4 60 15 4 8 17 15 30 15 31 0 32 27 2
32 -17 2 -23 10 -23 28 0 21 5 25 35 28 19 2 39 10 43 18 5 8 24 14 46 14 25
0 41 5 45 15 3 8 14 15 24 15 10 0 23 5 30 12 6 6 32 19 58 27 26 9 50 23 54
31 4 8 12 26 19 39 9 17 10 26 2 34 -19 19 -12 42 20 60 34 19 74 22 84 7 9
-15 36 8 33 28 -2 10 7 18 22 22 20 5 26 13 30 45 5 37 7 40 40 43 40 4 68 25
72 55 4 30 26 32 34 3 9 -37 24 -32 24 8 0 18 7 39 15 46 8 7 15 21 15 31 0
28 15 30 39 5 19 -20 20 -26 9 -56 -9 -26 -9 -35 0 -38 7 -2 12 -12 12 -23 0
-10 6 -19 14 -19 28 0 37 29 37 118 l0 91 29 6 c26 6 30 11 30 41 0 30 -3 34
-25 34 -22 0 -25 4 -25 34 0 27 5 36 21 41 24 8 39 -8 39 -42 0 -27 7 -29 32
-6 13 12 18 30 18 70 0 38 4 55 15 59 8 4 15 16 15 28 0 25 95 122 125 128 14
2 21 12 23 33 2 25 10 34 43 48 l41 18 -6 52 c-7 70 -7 67 0 107 4 19 13 39
20 43 8 5 14 24 14 46 0 22 6 44 15 51 9 7 15 29 15 52 0 21 7 50 16 63 12 18
13 29 6 38 -6 7 -14 55 -18 107 -3 52 -13 105 -20 117 -8 12 -14 35 -14 50 0
31 -54 93 -82 93 -13 0 -18 8 -18 30 0 56 -25 112 -70 160 -25 27 -54 50 -65
52 -13 2 -22 14 -26 38 -15 76 -36 125 -55 129 -10 2 -23 9 -27 17 -4 8 -14
14 -22 14 -8 0 -11 7 -8 19 2 10 -3 25 -11 34 -9 8 -16 22 -16 31 0 18 -14 27
-54 35 -18 4 -32 14 -34 25 -2 9 -26 39 -54 67 l-49 49 -103 0 c-96 0 -104 -2
-126 -25 -20 -21 -21 -25 -7 -31 23 -8 30 -33 8 -27 -11 3 -21 -2 -25 -13 -5
-14 -4 -15 9 -4 8 7 16 9 16 4 3 -16 6 -39 8 -56 1 -15 11 -18 61 -18 33 0 60
4 60 10 0 6 25 10 55 10 30 0 55 -4 55 -10 0 -5 -25 -10 -55 -10 l-55 0 -1
-57 c-1 -32 -1 -73 0 -91 l3 -33 -59 3 c-49 2 -62 7 -81 30 -13 16 -33 28 -43
28 -11 0 -22 7 -25 15 -4 8 -15 15 -25 15 -25 0 -62 37 -52 53 4 7 0 6 -11 -2
-13 -11 -20 -11 -28 -3 -7 7 -25 12 -42 12 -39 0 -76 35 -76 71 0 33 -60 99
-89 99 -10 0 -22 7 -25 16 -6 16 -8 16 -24 0 -15 -13 -41 -16 -131 -16 -70 0
-110 4 -106 10 7 11 -57 40 -87 40 -11 0 -46 16 -79 35 -48 28 -61 32 -65 20
-7 -17 -49 -20 -59 -5 -3 6 -43 10 -89 10 -46 0 -97 5 -115 11 -27 9 -31 16
-31 46 0 44 -24 40 -28 -5 -3 -26 -8 -32 -28 -32 -20 0 -24 5 -24 28 0 33 -24
59 -60 64 -19 2 -26 -2 -28 -19 -2 -12 -10 -24 -18 -27 -17 -6 -44 3 -44 15 0
5 -15 9 -32 9 -18 0 -42 7 -52 15 -26 19 -80 19 -96 0 -16 -19 -28 -19 -64 0
-35 18 -58 19 -74 3 -13 -13 -42 -15 -507 -37 -99 -4 -181 -9 -182 -10 -2 0
-3 -10 -3 -20 0 -10 -6 -21 -12 -24 -10 -3 -170 -2 -220 2 -5 1 -8 9 -8 20 0
10 -7 24 -15 31 -8 7 -15 21 -15 31 0 10 -4 21 -10 24 -5 3 -10 17 -10 30 0
13 5 27 10 30 18 11 11 45 -10 45 -24 0 -40 28 -40 72 0 36 15 58 39 58 20 0
81 60 81 80 0 10 20 25 52 39 45 20 71 23 180 24 97 1 128 5 128 14 0 8 12 13
30 13 29 0 132 24 150 35 5 3 44 -2 87 -11 87 -18 181 -12 190 12 3 8 17 14
32 14 15 0 54 5 86 12 51 10 56 13 40 24 -23 17 -17 19 115 33 58 5 120 13
138 17 21 4 43 1 58 -6 25 -14 31 -12 106 26 19 10 43 12 83 8 47 -6 58 -11
65 -30 7 -17 20 -24 54 -29 83 -13 143 16 118 56 -7 10 -12 23 -12 29 0 15 33
12 56 -5 25 -19 103 -20 110 -1 10 26 35 26 78 1 24 -14 46 -25 50 -25 4 0 14
16 22 35 17 41 36 52 67 38 12 -5 30 -7 41 -5 17 4 18 11 12 102 l-7 97 36 27
c23 18 36 23 37 14 6 -51 4 -68 -8 -68 -19 0 -17 -10 4 -26 23 -18 42 -17 42
1 0 9 7 18 15 21 8 4 15 18 15 34 0 19 11 37 35 59 20 17 41 31 47 31 6 0 8 3
5 7 -12 11 25 43 50 43 18 0 23 6 23 24 0 26 23 51 39 42 22 -14 57 18 83 76
26 57 30 60 55 53 66 -16 104 -17 121 -2 16 14 113 28 207 29 99 1 255 -15
266 -28 16 -19 93 -18 109 1 7 8 20 15 30 15 10 0 23 -7 30 -15 10 -12 49 -15
231 -15 129 0 219 4 219 9 0 5 4 21 10 35 11 29 35 33 60 11z m-1460 -91 c0
-8 -5 -12 -10 -9 -6 4 -8 11 -5 16 9 14 15 11 15 -7z m-5603 -106 c-3 -8 -6
-5 -6 6 -1 11 2 17 5 13 3 -3 4 -12 1 -19z m363 -89 c0 -10 -7 -19 -15 -19
-16 0 -19 9 -9 34 8 20 24 11 24 -15z m-130 -69 c0 -5 -5 -10 -11 -10 -5 0 -7
5 -4 10 3 6 8 10 11 10 2 0 4 -4 4 -10z m-33 -87 c-3 -10 -5 -2 -5 17 0 19 2
27 5 18 2 -10 2 -26 0 -35z m380 -90 c-2 -16 -4 -5 -4 22 0 28 2 40 4 28 2
-13 2 -35 0 -50z m-456 4 c3 -21 2 -40 -3 -43 -5 -3 -8 -13 -6 -22 1 -10 -1
-23 -6 -30 -4 -7 -5 -21 -1 -30 6 -16 8 -15 21 2 14 20 14 20 29 0 19 -26 14
-38 -19 -42 -30 -4 -45 -27 -27 -45 18 -18 12 -136 -9 -187 l-19 -45 0 46 c-1
25 4 50 10 56 18 18 7 58 -18 61 -20 3 -22 9 -22 72 0 39 5 72 10 75 13 8 11
72 -3 111 -15 44 -5 66 29 62 24 -3 29 -9 34 -41z m-644 -59 c-3 -8 -6 -5 -6
6 -1 11 2 17 5 13 3 -3 4 -12 1 -19z m5379 -7 c-3 -5 -15 -7 -26 -4 -28 7 -25
13 6 13 14 0 23 -4 20 -9z m-4556 -38 c0 -7 -4 -13 -10 -13 -5 0 -10 12 -10
28 0 21 2 24 10 12 5 -8 10 -21 10 -27z m-25 -144 c11 -18 -5 -79 -20 -79 -16
0 -19 28 -9 68 7 24 19 29 29 11z m2775 -159 c0 -5 -5 -10 -11 -10 -5 0 -7 5
-4 10 3 6 8 10 11 10 2 0 4 -4 4 -10z m6 -231 c3 -6 3 -44 -1 -85 l-7 -74 -31
0 c-18 0 -41 -7 -51 -15 -25 -19 -140 -21 -134 -2 3 7 26 13 56 15 l52 3 0 78
c0 43 3 81 7 84 11 11 101 8 109 -4z m3009 -279 c-3 -5 -23 -9 -43 -9 l-37 2
40 7 c22 4 41 8 43 9 2 0 0 -3 -3 -9z m-102 -37 c-7 -2 -19 -2 -25 0 -7 3 -2
5 12 5 14 0 19 -2 13 -5z m4512 -19 c35 -23 33 -54 -2 -56 -84 -4 -123 7 -123
37 0 20 5 24 30 23 17 -1 33 2 37 5 11 11 32 8 58 -9z m-4415 -20 c0 -11 -8
-14 -32 -12 -46 4 -49 28 -4 28 26 0 36 -4 36 -16z m-3486 -134 c-12 -12 -14
-6 -14 46 0 78 13 91 22 22 5 -40 3 -57 -8 -68z m-3767 78 c-3 -8 -6 -5 -6 6
-1 11 2 17 5 13 3 -3 4 -12 1 -19z m1207 -94 c-10 -19 -22 -34 -26 -34 -14 0
-8 29 15 72 20 38 22 40 25 19 2 -13 -4 -39 -14 -57z m6046 -104 c0 -5 -15
-10 -34 -10 -19 0 -38 -4 -41 -10 -3 -5 -21 -10 -39 -10 -17 0 -38 -6 -45 -12
-10 -11 -11 -10 -6 5 4 10 17 17 31 17 14 0 27 7 30 15 7 17 104 22 104 5z
m-6394 -47 c4 -22 2 -53 -6 -78 -7 -22 -14 -64 -15 -94 -3 -53 -15 -73 -42
-65 -49 15 -47 13 -29 32 9 10 16 32 16 48 0 16 7 61 17 99 24 102 47 124 59
58z m6296 -20 c-3 -16 -7 -22 -10 -15 -4 13 4 42 11 42 2 0 2 -12 -1 -27z
m-92 -93 c0 -25 -18 -36 -26 -16 -8 21 3 49 16 41 5 -3 10 -15 10 -25z m-5
-99 c3 -5 1 -12 -5 -16 -5 -3 -10 1 -10 9 0 18 6 21 15 7z m58 -48 c-9 -24
-41 -53 -58 -53 -21 0 -19 39 3 46 9 3 24 9 32 14 23 14 30 12 23 -7z m-6322
-46 c-1 -4 -1 -14 -1 -22 0 -8 -4 -15 -10 -15 -5 0 -10 12 -10 26 0 14 5 24
11 22 6 -2 10 -7 10 -11z m-1 -123 c0 -8 -4 -12 -10 -9 -5 3 -10 10 -10 16 0
5 5 9 10 9 6 0 10 -7 10 -16z m4420 -238 c0 -8 12 -28 26 -45 21 -25 23 -34
14 -51 -24 -46 -91 -44 -106 3 -9 29 5 85 24 96 24 15 42 13 42 -3z m-4343
-193 c-3 -10 -5 -4 -5 12 0 17 2 24 5 18 2 -7 2 -21 0 -30z m-18 -135 c-1 -18
-5 -46 -9 -63 -6 -24 -8 -17 -9 33 0 35 3 62 9 62 6 0 9 -15 9 -32z m-1219
-113 c0 -14 -4 -25 -10 -25 -5 0 -10 11 -10 25 0 14 5 25 10 25 6 0 10 -11 10
-25z m1140 -210 c0 -29 -16 -41 -24 -19 -8 21 3 56 15 49 5 -4 9 -17 9 -30z
m37 -162 c-3 -10 -5 -2 -5 17 0 19 2 27 5 18 2 -10 2 -26 0 -35z m363 -498 c0
-27 -64 -104 -87 -104 -14 -1 -28 -12 -38 -31 -9 -18 -23 -30 -35 -30 -11 0
-20 -6 -20 -12 0 -20 -65 -58 -80 -48 -11 7 -9 13 11 29 13 12 34 23 45 27 12
3 26 16 32 28 5 13 26 30 45 40 20 9 37 22 39 30 5 21 71 95 80 90 4 -3 8 -12
8 -19z m4917 -407 c-3 -8 -6 -5 -6 6 -1 11 2 17 5 13 3 -3 4 -12 1 -19z m-694
-135 c-7 -2 -19 -2 -25 0 -7 3 -2 5 12 5 14 0 19 -2 13 -5z m4417 -163 c0 -31
-17 -39 -38 -18 -9 9 -8 16 5 30 23 26 33 22 33 -12z m1673 -100 c34 -10 47
-18 47 -32 0 -25 60 -77 90 -78 37 -1 51 -13 59 -51 l7 -34 106 -3 c104 -3
107 -2 110 20 4 34 68 38 99 7 20 -20 21 -23 5 -34 -14 -11 -16 -29 -14 -116
3 -103 3 -104 28 -104 25 0 25 0 28 104 1 58 7 110 12 115 5 7 42 9 107 5 54
-4 122 -7 151 -8 74 -1 65 -21 -10 -22 -35 0 -85 -4 -113 -7 -41 -6 -51 -11
-53 -28 -3 -19 3 -22 55 -29 32 -4 77 -8 100 -10 22 -1 46 -6 52 -9 14 -9 14
-63 1 -71 -8 -5 -7 -12 1 -22 11 -12 14 -12 21 1 12 21 81 21 98 1 21 -25 3
-30 -98 -28 -59 1 -101 -2 -109 -9 -19 -15 1 -28 43 -28 19 0 34 -6 38 -15 4
-11 20 -15 56 -15 27 0 50 -3 50 -7 0 -14 -34 -43 -51 -43 -47 0 -33 -55 16
-64 19 -4 48 -18 64 -31 29 -25 61 -33 61 -15 0 18 40 32 56 19 20 -17 0 -37
-31 -31 -34 6 -31 -4 14 -49 26 -27 47 -39 67 -39 31 0 74 -35 74 -60 0 -25
31 -48 69 -52 57 -5 50 -26 -10 -30 -64 -4 -82 -28 -21 -28 26 0 42 -5 46 -15
9 -24 26 -17 26 10 0 16 6 25 15 25 10 0 15 -10 15 -34 0 -18 7 -39 15 -46 8
-7 15 -20 15 -30 0 -10 7 -23 15 -30 8 -7 15 -27 15 -45 0 -20 6 -35 15 -39 8
-3 15 -14 15 -24 0 -11 7 -25 15 -32 10 -8 15 -37 17 -93 l3 -82 35 -5 35 -5
1 -103 c1 -100 1 -104 -22 -114 -26 -12 -30 -28 -14 -59 6 -10 14 -47 19 -82
4 -34 11 -70 15 -79 6 -12 2 -17 -16 -20 -23 -3 -23 -5 -28 -163 -3 -101 -10
-168 -17 -182 -7 -12 -13 -32 -13 -45 0 -14 -13 -37 -30 -53 -29 -27 -29 -31
-32 -139 -3 -100 -5 -111 -23 -116 -43 -11 -65 -34 -65 -67 0 -41 -30 -73 -68
-73 -36 0 -85 -46 -58 -55 53 -17 51 -16 36 -25 -8 -6 -24 -10 -35 -10 -19 0
-20 -7 -20 -112 l0 -113 -38 -3 c-28 -2 -42 2 -51 14 -9 12 -15 14 -20 5 -4
-6 0 -14 8 -17 35 -14 -3 -94 -44 -94 -30 0 -58 -42 -62 -90 l-3 -45 -146 -3
-145 -3 -44 -44 c-24 -25 -52 -45 -61 -45 -9 0 -22 -7 -29 -15 -7 -8 -20 -15
-30 -15 -10 0 -23 -7 -30 -15 -7 -8 -20 -15 -30 -15 -10 0 -23 -7 -30 -15 -7
-8 -18 -15 -25 -15 -7 0 -18 7 -25 15 -7 8 -20 15 -30 15 -10 0 -23 7 -30 15
-7 8 -20 15 -30 15 -10 0 -23 7 -30 15 -7 8 -19 15 -28 15 -25 0 -52 31 -52
61 0 27 2 28 53 31 l52 3 3 107 c2 78 6 109 17 118 13 11 12 16 -8 36 -12 13
-29 24 -38 24 -9 0 -22 7 -29 15 -7 8 -20 15 -30 15 -10 0 -23 7 -30 15 -7 8
-26 15 -43 15 -41 0 -67 26 -67 66 0 18 -4 36 -10 39 -5 3 -17 32 -26 63 -28
104 -73 190 -159 310 -18 25 -88 72 -107 72 -7 0 -25 6 -39 14 -14 7 -41 16
-60 20 -22 4 -50 21 -75 47 -21 22 -56 49 -76 60 -35 18 -38 22 -38 65 0 46
-1 47 -51 58 -23 5 -28 12 -31 48 -6 54 16 87 55 88 l27 0 -2 158 -3 157 -50
5 -50 5 -5 225 -5 225 -24 3 c-15 3 -20 7 -12 11 8 5 12 45 14 117 2 87 -1
111 -13 121 -13 10 -11 12 12 13 15 0 30 5 33 10 3 6 17 10 31 10 19 0 25 5
22 17 -2 13 -19 21 -58 28 -44 8 -55 14 -55 30 0 16 11 22 55 30 39 7 56 15
58 28 2 10 -3 17 -12 17 -23 0 -96 24 -96 31 0 4 20 10 45 14 38 5 45 9 40 24
-3 10 1 24 10 31 8 7 15 21 15 31 0 22 11 24 28 7 6 -6 14 -9 18 -6 3 4 9 89
12 190 l7 183 68 3 c37 2 67 7 67 12 0 6 -9 10 -19 10 -29 0 -36 18 -15 41 10
11 30 19 49 19 18 0 38 7 45 15 7 8 21 15 32 15 10 0 21 7 24 15 4 9 19 15 40
15 21 0 42 8 54 20 23 23 19 40 -11 40 -10 0 -19 5 -19 11 0 14 117 6 183 -11z
m-753 -250 c0 -5 -13 -10 -30 -10 -16 0 -30 5 -30 10 0 6 14 10 30 10 17 0 30
-4 30 -10z m-9675 -230 c3 -5 -1 -10 -10 -10 -9 0 -13 5 -10 10 3 6 8 10 10
10 2 0 7 -4 10 -10z m-65 -40 c0 -5 -16 -26 -35 -47 -28 -30 -37 -35 -44 -24
-12 19 -4 38 20 44 13 3 19 14 19 31 0 24 2 25 20 16 11 -6 20 -15 20 -20z
m1997 -172 c-3 -7 -5 -2 -5 12 0 14 2 19 5 13 2 -7 2 -19 0 -25z m6186 -136
c10 -9 25 -31 34 -49 8 -18 20 -33 26 -33 6 0 -2 -13 -18 -30 l-28 -29 22 -18
c20 -17 21 -19 6 -40 -11 -16 -26 -23 -51 -23 -29 0 -34 -3 -34 -24 0 -21 6
-25 33 -28 39 -4 43 -26 7 -47 -23 -12 -30 -12 -60 2 -19 8 -45 18 -57 22 -13
3 -23 10 -23 15 0 5 -12 22 -27 38 -16 16 -34 37 -40 45 -15 19 -17 63 -3 72
14 9 12 42 -2 48 -7 3 -1 6 15 6 23 1 27 5 27 30 0 16 -6 31 -12 34 -7 2 -9 8
-5 13 4 5 12 2 17 -5 7 -12 13 -12 42 1 61 29 97 29 131 0z m-203 -42 c0 -11
-4 -20 -10 -20 -5 0 -10 9 -10 20 0 11 5 20 10 20 6 0 10 -9 10 -20z m4132
-457 c26 -23 22 -33 -12 -33 -22 0 -30 5 -30 18 0 34 15 40 42 15z m-12495
-75 c-2 -13 -4 -3 -4 22 0 25 2 35 4 23 2 -13 2 -33 0 -45z m10291 -303 c-3
-3 -9 2 -12 12 -6 14 -5 15 5 6 7 -7 10 -15 7 -18z m2192 -472 c0 -20 -3 -24
-11 -16 -7 7 -9 19 -6 27 10 24 17 19 17 -11z m-13769 -472 c-6 -11 -11 -37
-11 -58 0 -21 -5 -45 -11 -53 -7 -11 -8 4 -4 50 4 36 11 69 16 75 5 5 10 18
10 30 2 19 2 18 6 -2 2 -12 -1 -31 -6 -42z m1346 -93 c-3 -8 -6 -5 -6 6 -1 11
2 17 5 13 3 -3 4 -12 1 -19z m-1377 -85 c0 -57 -14 -87 -25 -54 -8 27 3 101
16 101 5 0 9 -21 9 -47z m9130 -134 c0 -32 -24 -99 -36 -99 -29 0 -57 61 -34
75 6 3 10 15 10 26 0 19 37 42 53 32 4 -2 7 -18 7 -34z m60 -14 c0 -8 -4 -15
-10 -15 -5 0 -10 7 -10 15 0 8 5 15 10 15 6 0 10 -7 10 -15z m120 -29 c0 -3
-4 -8 -10 -11 -5 -3 -10 -1 -10 4 0 6 5 11 10 11 6 0 10 -2 10 -4z m3065 -6
c-3 -5 -15 -10 -25 -10 -10 0 -22 5 -25 10 -4 6 7 10 25 10 18 0 29 -4 25 -10z
m-12412 -71 c-8 -29 -13 -23 -13 14 0 22 3 28 9 18 5 -7 6 -22 4 -32z m12412
-118 c3 -5 1 -13 -5 -16 -15 -9 -43 3 -35 15 8 13 32 13 40 1z m325 -266 c7
-8 21 -15 31 -15 28 0 32 -17 9 -40 -12 -12 -33 -20 -55 -20 -21 0 -37 -6 -43
-16 -14 -25 -32 -8 -32 30 0 17 -5 37 -11 43 -19 19 0 33 45 33 27 0 48 -6 56
-15z m-2882 -101 c-2 -2 -21 -1 -41 3 -42 6 -41 12 6 28 28 9 32 8 35 -8 2
-10 2 -20 0 -23z m1889 -609 c-8 -6 -17 -27 -19 -46 l-3 -34 -115 0 -115 0 -3
38 -3 37 119 0 c100 0 121 3 126 16 3 8 11 12 17 8 9 -5 8 -10 -4 -19z m-1879
-227 c-5 -16 -58 -22 -115 -13 -71 10 -49 25 38 25 60 0 80 -3 77 -12z m1609
-444 c-3 -3 -12 -4 -19 -1 -8 3 -5 6 6 6 11 1 17 -2 13 -5z m526 -19 c1 -5 -6
-11 -15 -13 -11 -2 -18 3 -18 13 0 17 30 18 33 0z m-9166 -207 c-3 -8 -6 -5
-6 6 -1 11 2 17 5 13 3 -3 4 -12 1 -19z"/>
<path d="M3938 15314 c-5 -4 -8 -21 -8 -39 0 -17 -7 -40 -15 -51 -15 -20 -21
-94 -7 -94 13 0 43 116 40 154 -2 21 -6 34 -10 30z"/>
<path d="M3562 13680 c0 -19 2 -27 5 -17 2 9 2 25 0 35 -3 9 -5 1 -5 -18z"/>
<path d="M3472 13390 c0 -14 2 -19 5 -12 2 6 2 18 0 25 -3 6 -5 1 -5 -13z"/>
<path d="M3531 13344 c0 -11 3 -14 6 -6 3 7 2 16 -1 19 -3 4 -6 -2 -5 -13z"/>
<path d="M3356 12965 c-3 -9 -6 -26 -5 -38 1 -14 4 -9 9 13 9 37 7 52 -4 25z"/>
<path d="M3242 12580 c0 -14 2 -19 5 -12 2 6 2 18 0 25 -3 6 -5 1 -5 -13z"/>
<path d="M4700 15316 c0 -2 7 -9 15 -16 12 -10 15 -10 15 4 0 9 -7 16 -15 16
-8 0 -15 -2 -15 -4z"/>
<path d="M4530 15128 c-8 -24 -17 -47 -21 -53 -9 -13 0 -65 12 -65 9 0 13 28
10 62 -2 11 7 20 23 24 29 7 31 12 14 49 -16 35 -23 32 -38 -17z"/>
<path d="M4297 15056 c-18 -14 -25 -82 -7 -71 6 3 10 16 10 29 0 12 5 27 12
34 17 17 6 23 -15 8z"/>
<path d="M4250 14915 c1 -26 2 -28 11 -12 8 14 8 22 0 30 -8 8 -11 3 -11 -18z"/>
<path d="M4600 14495 c0 -8 5 -15 10 -15 6 0 10 7 10 15 0 8 -4 15 -10 15 -5
0 -10 -7 -10 -15z"/>
<path d="M4654 14449 c-8 -14 11 -33 25 -25 6 4 11 14 11 22 0 16 -26 19 -36
3z"/>
<path d="M4475 14360 c-3 -5 -1 -10 4 -10 6 0 11 5 11 10 0 6 -2 10 -4 10 -3
0 -8 -4 -11 -10z"/>
<path d="M4281 14238 c0 -45 3 -57 9 -43 12 28 12 105 0 105 -6 0 -10 -27 -9
-62z"/>
<path d="M4433 14135 c0 -27 2 -38 4 -22 2 15 2 37 0 50 -2 12 -4 0 -4 -28z"/>
<path d="M4136 14105 c-12 -32 -7 -57 12 -53 11 3 16 12 14 28 -3 32 -18 46
-26 25z"/>
<path d="M4402 14025 c0 -16 2 -22 5 -12 2 9 2 23 0 30 -3 6 -5 -1 -5 -18z"/>
<path d="M4245 13991 c-3 -5 -1 -12 5 -16 5 -3 10 1 10 9 0 18 -6 21 -15 7z"/>
<path d="M4395 13938 c-4 -10 -4 -26 0 -35 8 -17 8 -17 12 0 3 9 3 25 0 35 -4
16 -4 16 -12 0z"/>
<path d="M4225 13900 c-3 -5 -1 -10 4 -10 6 0 11 5 11 10 0 6 -2 10 -4 10 -3
0 -8 -4 -11 -10z"/>
<path d="M6315 10680 c-4 -6 5 -10 20 -10 15 0 24 4 20 10 -3 6 -12 10 -20 10
-8 0 -17 -4 -20 -10z"/>
<path d="M5850 10645 c0 -13 8 -16 38 -13 20 2 37 8 37 13 0 6 -17 11 -37 13
-30 3 -38 0 -38 -13z"/>
<path d="M5810 10601 c0 -11 5 -23 10 -26 6 -3 10 -2 10 4 0 5 3 16 6 25 4 11
1 16 -10 16 -9 0 -16 -8 -16 -19z"/>
<path d="M8080 9860 c0 -5 5 -10 10 -10 6 0 10 5 10 10 0 6 -4 10 -10 10 -5 0
-10 -4 -10 -10z"/>
<path d="M9535 9090 c-3 -5 -1 -18 4 -27 9 -16 10 -14 11 10 0 28 -5 34 -15
17z"/>
<path d="M10696 7131 c-4 -7 -5 -15 -2 -18 9 -9 19 4 14 18 -4 11 -6 11 -12 0z"/>
<path d="M10597 7095 c6 -17 25 -15 31 3 2 7 -5 12 -17 12 -14 0 -19 -5 -14
-15z"/>
<path d="M6310 7059 c0 -30 0 -30 50 -27 50 3 69 20 30 26 -12 2 -24 10 -27
18 -3 8 -16 14 -29 14 -20 0 -24 -5 -24 -31z"/>
<path d="M6430 6965 c-24 -29 -4 -46 50 -42 28 2 50 7 50 11 0 3 0 15 0 26 0
17 -7 20 -44 20 -26 0 -48 -6 -56 -15z"/>
<path d="M9380 6911 c-8 -5 -32 -11 -52 -15 -82 -15 -228 -230 -241 -354 l-7
-63 48 -59 c27 -34 65 -67 90 -79 23 -12 42 -27 42 -35 0 -7 7 -19 15 -26 8
-7 12 -16 9 -21 -3 -5 1 -9 9 -9 7 0 19 11 25 25 11 23 16 25 86 25 98 0 138
9 144 32 2 10 16 21 31 24 14 4 33 12 41 19 8 6 23 15 32 18 9 3 18 16 20 29
4 27 21 27 26 1 2 -10 10 -23 19 -30 11 -9 12 -16 4 -31 -8 -16 -6 -21 15 -31
41 -18 53 -13 60 24 3 19 12 35 18 35 7 0 23 11 35 24 23 24 23 24 3 35 -12 6
-28 11 -37 11 -11 0 -15 5 -11 15 4 10 -1 14 -15 12 -35 -4 -45 25 -20 59 20
28 20 32 7 83 -7 29 -18 56 -23 60 -4 3 -14 18 -21 34 -6 15 -22 31 -35 36
-13 5 -48 30 -78 56 -56 48 -84 64 -159 89 -52 18 -59 19 -80 7z"/>
<path d="M7010 6900 c0 -5 9 -10 20 -10 11 0 20 5 20 10 0 6 -9 10 -20 10 -11
0 -20 -4 -20 -10z"/>
<path d="M3907 6753 c-9 -8 -7 -99 3 -138 5 -21 8 -4 9 58 1 87 0 93 -12 80z"/>
<path d="M9345 6235 c-22 -8 -54 -14 -72 -14 -17 -1 -35 -5 -38 -11 -3 -5 -35
-10 -70 -10 -35 0 -67 -5 -70 -10 -4 -6 -16 -8 -27 -4 -29 9 -62 -29 -48 -56
16 -29 77 -64 136 -78 78 -17 223 -5 251 21 18 16 20 23 11 34 -8 10 -7 18 6
31 19 22 21 43 4 40 -19 -4 -22 41 -4 48 9 3 13 10 10 15 -7 12 -40 10 -89 -6z"/>
<path d="M4192 5838 c-6 -14 -16 -29 -21 -33 -16 -9 -13 -42 4 -49 9 -3 15
-18 15 -37 0 -20 11 -46 28 -68 24 -31 28 -47 32 -126 3 -53 9 -89 15 -87 21
5 -3 241 -28 266 -9 10 -17 26 -17 36 0 10 -4 21 -9 25 -5 3 -6 17 -2 33 5 15
5 36 1 47 -7 19 -9 18 -18 -7z"/>
<path d="M4143 5700 c0 -30 2 -43 4 -27 2 15 2 39 0 55 -2 15 -4 2 -4 -28z"/>
<path d="M4290 5325 c0 -16 6 -25 15 -25 9 0 15 9 15 25 0 16 -6 25 -15 25 -9
0 -15 -9 -15 -25z"/>
<path d="M4310 5160 c0 -16 4 -30 9 -30 5 0 16 -3 25 -6 23 -9 21 35 -1 52
-27 20 -33 17 -33 -16z"/>
<path d="M4370 5039 c0 -5 5 -7 10 -4 6 3 10 8 10 11 0 2 -4 4 -10 4 -5 0 -10
-5 -10 -11z"/>
<path d="M9266 3828 c-5 -22 14 -48 36 -48 13 0 9 33 -6 53 -17 22 -22 22 -30
-5z"/>
<path d="M9296 3634 c-3 -9 -6 -28 -6 -43 0 -15 -4 -31 -9 -36 -5 -6 -11 -35
-13 -65 -2 -44 0 -55 12 -55 11 0 14 9 12 31 -2 19 3 36 13 44 10 8 15 30 15
71 0 57 -12 84 -24 53z"/>
<path d="M11790 3480 c0 -36 3 -40 25 -40 28 0 29 3 16 28 -5 9 -12 25 -15 35
-10 32 -26 18 -26 -23z"/>
<path d="M11620 2870 c0 -5 5 -10 11 -10 5 0 7 5 4 10 -3 6 -8 10 -11 10 -2 0
-4 -4 -4 -10z"/>
<path d="M11822 1858 c3 -7 14 -14 26 -16 12 -2 22 -7 22 -12 0 -4 29 -10 63
-12 64 -3 64 -3 57 22 -6 24 -10 25 -89 28 -64 2 -82 0 -79 -10z"/>
<path d="M13910 4380 c0 -5 9 -10 20 -10 11 0 20 5 20 10 0 6 -9 10 -20 10
-11 0 -20 -4 -20 -10z"/>
<path d="M13052 3838 c-37 -18 -23 -43 26 -46 35 -3 42 0 42 15 0 21 -18 43
-34 42 -6 0 -21 -5 -34 -11z"/>
<path d="M13230 3695 c-15 -17 -5 -35 20 -35 22 0 33 23 17 39 -15 15 -22 14
-37 -4z"/>
<path d="M18720 19960 l0 -40 164 0 c128 0 166 -3 175 -14 8 -9 11 -50 9 -117
l-3 -104 -112 -3 -113 -3 0 -54 0 -54 113 -3 112 -3 5 -55 5 -55 52 -3 52 -3
3 -112 3 -112 55 -5 55 -5 3 -112 3 -113 -55 0 c-40 0 -55 -4 -60 -16 -3 -9
-6 -109 -6 -224 0 -170 3 -210 15 -220 11 -9 15 -40 17 -123 3 -103 5 -112 23
-115 52 -8 65 -14 65 -30 0 -21 42 -62 63 -62 9 0 19 -4 22 -10 3 -5 14 -10
24 -10 10 0 24 -7 31 -15 7 -8 20 -15 29 -15 10 0 30 -13 46 -30 28 -30 30
-30 131 -30 57 0 105 -4 109 -10 6 -9 -151 -16 -525 -22 l-185 -3 -3 -112 -3
-113 49 0 c26 0 53 -5 60 -12 8 -8 12 -48 12 -115 l0 -102 68 -3 67 -3 0 -115
0 -115 -113 -3 -113 -3 3 -112 3 -112 40 -5 40 -5 3 -112 3 -113 227 -2 227
-3 7 -54 c3 -29 11 -58 17 -64 16 -16 14 -92 -4 -107 -12 -10 -15 -66 -17
-354 l-3 -341 -40 -5 -40 -5 -3 -112 c-3 -112 -3 -113 -27 -113 -17 0 -26 -7
-30 -22 -3 -13 -4 -167 -3 -343 l3 -320 28 -3 27 -3 0 346 0 346 113 -3 112
-3 3 -112 c3 -109 2 -112 -20 -115 -22 -3 -23 -6 -23 -118 0 -112 1 -115 23
-118 21 -3 22 -7 22 -107 0 -79 4 -107 15 -119 12 -11 15 -40 15 -124 0 -88
-3 -111 -15 -116 -12 -4 -15 -26 -15 -110 0 -121 -7 -114 110 -118 l65 -3 3
-112 3 -113 29 0 30 0 0 768 0 767 -112 0 c-83 0 -112 3 -116 13 -3 11 20 13
112 10 l116 -3 0 2048 0 2047 -640 0 -640 0 0 -40z m728 -627 l-3 -108 -27 -3
-28 -3 0 110 0 111 30 0 31 0 -3 -107z m372 -2127 c6 -8 21 -16 33 -18 13 -2
23 -13 27 -28 5 -22 13 -26 55 -30 l50 -5 0 -55 0 -55 -99 -3 c-64 -2 -103 1
-112 9 -14 12 -20 151 -8 183 8 20 38 21 54 2z m55 -1021 c0 -5 -16 -11 -35
-13 -19 -2 -41 -8 -48 -14 -17 -15 -37 5 -28 27 4 13 17 15 58 13 29 -2 53 -7
53 -13z m-37 -185 c17 0 34 -4 37 -10 4 -6 -17 -10 -54 -10 -61 0 -67 4 -55
35 6 14 8 14 24 0 9 -8 31 -15 48 -15z"/>
<path d="M18465 19907 c-3 -7 -4 -60 -3 -118 l3 -104 65 0 65 0 0 115 0 115
-63 3 c-45 2 -64 -1 -67 -11z"/>
<path d="M14550 19700 c0 -5 5 -10 10 -10 6 0 10 5 10 10 0 6 -4 10 -10 10 -5
0 -10 -4 -10 -10z"/>
<path d="M18920 18413 l5 -118 75 0 75 0 3 95 c4 143 6 140 -86 140 l-77 0 5
-117z"/>
<path d="M15595 18469 c-8 -26 7 -42 54 -58 94 -31 126 16 40 59 -51 26 -86
26 -94 -1z"/>
<path d="M18237 18053 c-16 -15 -5 -41 31 -76 21 -20 45 -37 53 -37 8 0 20 -5
27 -12 16 -16 18 -11 25 65 l6 67 -68 0 c-37 0 -71 -3 -74 -7z"/>
<path d="M18840 17945 c0 -89 3 -116 13 -112 8 2 12 34 12 112 0 78 -4 110
-12 113 -10 3 -13 -24 -13 -113z"/>
<path d="M18785 16887 c-3 -7 -4 -58 -3 -113 3 -98 3 -99 28 -99 l25 0 0 110
c0 107 -1 110 -23 113 -12 2 -24 -3 -27 -11z"/>
<path d="M19247 16664 c-4 -4 -7 -56 -7 -115 0 -101 1 -108 21 -114 12 -4 25
-3 30 2 6 6 8 59 7 119 -3 101 -4 109 -23 112 -12 2 -24 0 -28 -4z"/>
<path d="M19247 16193 c-4 -3 -7 -53 -7 -110 l0 -103 30 0 30 0 0 110 c0 109
0 110 -23 110 -13 0 -27 -3 -30 -7z"/>
<path d="M3697 15964 c-9 -9 4 -35 14 -28 5 3 9 12 9 20 0 14 -12 19 -23 8z"/>
<path d="M3263 15589 c-13 -13 -5 -51 11 -46 14 5 20 37 9 48 -5 5 -13 5 -20
-2z"/>
<path d="M3000 15255 c0 -8 5 -15 10 -15 6 0 10 7 10 15 0 8 -4 15 -10 15 -5
0 -10 -7 -10 -15z"/>
<path d="M19270 14621 c0 -6 -17 -11 -37 -13 -20 -2 -38 -9 -41 -15 -3 -10 35
-13 168 -13 133 0 171 3 168 13 -3 8 -38 13 -116 15 -64 1 -112 7 -112 12 0 6
-7 10 -15 10 -8 0 -15 -4 -15 -9z"/>
<path d="M18962 14343 c-21 -8 -2 -23 31 -23 40 0 70 -31 77 -80 5 -34 6 -35
58 -38 47 -3 52 -5 52 -27 0 -13 -4 -27 -10 -30 -6 -4 -10 -58 -10 -131 l0
-124 24 0 c55 0 56 -3 56 -132 l0 -121 36 -40 c37 -40 37 -40 30 -109 l-6 -69
27 3 28 3 5 110 c7 144 24 140 28 -5 l3 -110 84 0 85 0 0 109 0 110 -70 7 -69
7 -3 110 c-3 109 -3 111 -28 117 -24 6 -25 9 -30 115 -5 103 -6 110 -27 113
-19 3 -22 12 -30 75 l-8 72 -53 3 c-59 3 -75 21 -47 52 9 10 14 24 10 29 -6
11 -217 15 -243 4z"/>
<path d="M19543 14098 c2 -9 33 -13 107 -13 74 0 105 4 108 13 3 9 -23 12
-108 12 -85 0 -111 -3 -107 -12z"/>
<path d="M19991 13904 c0 -11 3 -14 6 -6 3 7 2 16 -1 19 -3 4 -6 -2 -5 -13z"/>
<path d="M2365 13641 c-3 -5 -1 -12 5 -16 5 -3 10 1 10 9 0 18 -6 21 -15 7z"/>
<path d="M19650 13529 c0 -84 3 -110 13 -107 8 3 13 37 15 111 2 91 0 107 -13
107 -13 0 -15 -18 -15 -111z"/>
<path d="M2856 12528 c-7 -33 5 -55 23 -44 15 10 14 51 -3 65 -11 9 -15 5 -20
-21z"/>
<path d="M2660 12228 c0 -19 2 -20 10 -8 13 19 13 30 0 30 -5 0 -10 -10 -10
-22z"/>
<path d="M2535 12188 c-9 -22 -2 -68 10 -71 14 -3 19 63 6 76 -7 7 -12 5 -16
-5z"/>
<path d="M2630 12176 c0 -31 6 -34 13 -6 3 11 1 23 -4 26 -5 3 -9 -6 -9 -20z"/>
<path d="M2812 12180 c0 -14 2 -19 5 -12 2 6 2 18 0 25 -3 6 -5 1 -5 -13z"/>
<path d="M2594 12108 c-3 -12 -13 -28 -20 -36 -16 -15 -18 -60 -5 -81 13 -21
31 20 38 85 6 55 0 71 -13 32z"/>
<path d="M2770 12086 c0 -8 5 -18 10 -21 6 -3 10 3 10 14 0 12 -4 21 -10 21
-5 0 -10 -6 -10 -14z"/>
<path d="M2686 12008 c-9 -36 -7 -106 4 -113 6 -4 10 20 10 64 0 74 -4 86 -14
49z"/>
<path d="M2646 11762 c-10 -42 -16 -93 -14 -112 3 -35 3 -35 17 -11 22 39 42
174 28 188 -10 10 -16 -4 -31 -65z"/>
<path d="M2480 11276 c-10 -28 -6 -46 10 -46 13 0 22 52 11 63 -7 7 -14 1 -21
-17z"/>
<path d="M2444 11196 c-8 -34 -1 -61 16 -61 10 0 16 13 18 43 2 32 0 42 -12
42 -9 0 -18 -11 -22 -24z"/>
<path d="M2431 11104 c0 -11 3 -14 6 -6 3 7 2 16 -1 19 -3 4 -6 -2 -5 -13z"/>
<path d="M50 6770 c0 -13 7 -20 20 -20 23 0 26 10 8 28 -18 18 -28 15 -28 -8z"/>
<path d="M15 6590 c-3 -5 -1 -10 4 -10 6 0 11 5 11 10 0 6 -2 10 -4 10 -3 0
-8 -4 -11 -10z"/>
<path d="M135 5390 c3 -5 8 -10 11 -10 2 0 4 5 4 10 0 6 -5 10 -11 10 -5 0 -7
-4 -4 -10z"/>
<path d="M82 5180 c0 -14 2 -19 5 -12 2 6 2 18 0 25 -3 6 -5 1 -5 -13z"/>
</g>
</svg>
